<?xml version="1.0" encoding="utf-8"?>
<!-- Generator: Adobe Illustrator 27.5.0, SVG Export Plug-In . SVG Version: 6.00 Build 0)  -->
<svg version="1.1" id="Layer_1" xmlns="http://www.w3.org/2000/svg" xmlns:xlink="http://www.w3.org/1999/xlink" x="0px" y="0px"
	 viewBox="0 0 2705 1665" style="enable-background:new 0 0 2705 1665;" xml:space="preserve">
<g>
	<g>
		<path style="fill:#FFBB00;" d="M1484.619,749.193c-0.626,0-1.247-0.265-1.687-0.773c-0.807-0.931-0.705-2.342,0.226-3.149
			l363.294-314.168c0.931-0.813,2.342-0.706,3.149,0.225c0.807,0.932,0.706,2.342-0.225,3.148L1486.08,748.646
			C1485.657,749.013,1485.138,749.193,1484.619,749.193z"/>
	</g>
	<g>
		<path style="fill:#0066DB;" d="M2121.161,1015.185c-0.096,0-0.198-0.006-0.299-0.023l-22.131-3.013
			c-1.224-0.164-2.082-1.292-1.913-2.511c0.169-1.225,1.337-2.088,2.511-1.913l22.13,3.013c1.225,0.163,2.082,1.292,1.913,2.511
			C2123.22,1014.372,2122.261,1015.185,2121.161,1015.185z M1789.161,970.037c-0.096,0-0.198-0.005-0.299-0.023l-177.068-24.077
			c-1.224-0.163-2.082-1.292-1.913-2.511c0.164-1.219,1.23-2.128,2.511-1.913l177.068,24.078c1.224,0.163,2.082,1.292,1.913,2.511
			C1791.22,969.225,1790.261,970.037,1789.161,970.037z"/>
	</g>
	<g>
		<path style="fill:#00A873;" d="M541.706,1122.012c-0.977,0-1.873-0.649-2.15-1.631c-0.333-1.191,0.361-2.421,1.546-2.754
			l630.189-176.052c1.196-0.344,2.42,0.361,2.753,1.546c0.333,1.191-0.361,2.421-1.546,2.754L542.31,1121.928
			C542.107,1121.984,541.904,1122.012,541.706,1122.012z"/>
	</g>
	<g>
		<path style="fill:#0066DB;" d="M1180.375,757.658c-0.49,0-0.976-0.158-1.388-0.485L754.752,420.207
			c-0.965-0.767-1.128-2.173-0.361-3.137c0.773-0.971,2.184-1.123,3.138-0.361l424.235,336.965c0.964,0.767,1.129,2.172,0.361,3.137
			C1181.685,757.37,1181.03,757.658,1180.375,757.658z"/>
	</g>
	<g>
		<path style="fill:#FFBB00;" d="M1152.213,1376.001c-0.293,0-0.592-0.056-0.88-0.18c-1.134-0.491-1.659-1.806-1.174-2.934
			l8.385-19.484c0.491-1.14,1.794-1.665,2.934-1.173c1.134,0.49,1.659,1.806,1.173,2.934l-8.385,19.484
			C1153.9,1375.494,1153.076,1376.001,1152.213,1376.001z M1195.916,1274.444c-0.293,0-0.593-0.057-0.88-0.181
			c-1.134-0.49-1.659-1.806-1.174-2.934l70.635-164.146c0.491-1.134,1.8-1.67,2.934-1.174c1.134,0.491,1.659,1.806,1.174,2.934
			l-70.636,164.146C1197.603,1273.937,1196.779,1274.444,1195.916,1274.444z"/>
	</g>
	<g>
		<path style="fill:#F57E00;" d="M1063.211,875.048c-0.147,0-0.299-0.017-0.451-0.045l-174.986-36.226
			c-1.208-0.254-1.987-1.434-1.738-2.641c0.248-1.208,1.388-1.975,2.641-1.738l174.986,36.227c1.208,0.254,1.987,1.433,1.738,2.641
			C1065.18,874.32,1064.249,875.048,1063.211,875.048z M800.729,820.709c-0.147,0-0.299-0.017-0.451-0.045l-21.871-4.525
			c-1.207-0.254-1.986-1.434-1.737-2.641c0.248-1.202,1.416-1.964,2.641-1.738l21.871,4.526c1.208,0.254,1.987,1.433,1.738,2.641
			C802.698,819.981,801.767,820.709,800.729,820.709z"/>
	</g>
	<g>
		<path style="fill:#F57E00;" d="M1265.462,640.25c-1.01,0-1.924-0.689-2.172-1.71l-42.061-173.677
			c-0.288-1.196,0.446-2.404,1.648-2.697c1.179-0.265,2.404,0.452,2.697,1.648l42.061,173.677c0.288,1.196-0.446,2.404-1.648,2.697
			C1265.812,640.227,1265.637,640.25,1265.462,640.25z"/>
	</g>
	<g>
		<path style="fill:#F57E00;" d="M1552.528,875.048c-0.998,0-1.913-0.677-2.167-1.687c-0.299-1.196,0.424-2.409,1.62-2.714
			l416.973-105.135c1.185-0.31,2.415,0.423,2.714,1.619c0.299,1.197-0.423,2.409-1.62,2.715l-416.973,105.135
			C1552.89,875.026,1552.709,875.048,1552.528,875.048z"/>
	</g>
	<g>
		<path style="fill:#FFBB00;" d="M1925.122,1357.917c-0.451,0-0.902-0.136-1.292-0.412l-467.571-332.643
			c-1.01-0.717-1.241-2.11-0.531-3.114c0.728-1.016,2.133-1.23,3.115-0.531l467.571,332.643c1.01,0.716,1.241,2.11,0.53,3.115
			C1926.504,1357.589,1925.816,1357.917,1925.122,1357.917z"/>
	</g>
	<g>
		<path style="fill:#0066DB;" d="M2340.955,1203.002c-45.531,0-87.874-18.169-119.236-51.151c-0.841-0.886-0.897-2.376-0.022-3.228
			c0.88-0.852,2.201-0.926,3.058-0.068c0.051,0.05,0.265,0.282,0.31,0.338c30.403,31.966,71.594,49.639,115.89,49.639
			c27.373,0,54.385-7.031,78.118-20.331c1.089-0.604,2.443-0.22,3.041,0.852c0.604,1.078,0.22,2.438-0.852,3.041
			C2396.857,1195.774,2369.09,1203.002,2340.955,1203.002z M2490.436,1103.899c-0.288,0-0.587-0.056-0.869-0.175
			c-1.134-0.479-1.671-1.789-1.191-2.929c3.408-8.074,6.173-16.527,8.222-25.11c0.282-1.196,1.467-1.924,2.691-1.653
			c1.202,0.288,1.941,1.49,1.653,2.691c-2.104,8.82-4.948,17.504-8.447,25.81
			C2492.135,1103.386,2491.305,1103.899,2490.436,1103.899z M2183.039,1003.273c-0.169,0-0.339-0.023-0.514-0.062
			c-1.202-0.283-1.947-1.484-1.659-2.686c2.082-8.82,4.915-17.509,8.408-25.826c0.485-1.14,1.783-1.671,2.923-1.196
			c1.14,0.48,1.676,1.788,1.197,2.923c-3.397,8.097-6.151,16.55-8.183,25.127
			C2184.968,1002.579,2184.054,1003.273,2183.039,1003.273z M2457.195,928.552l1.659-1.501l-1.947,1.19
			c-30.504-32.095-71.702-49.768-116.002-49.768c-27.452,0-54.537,7.07-78.321,20.444c-1.061,0.615-2.432,0.225-3.042-0.852
			c-0.604-1.078-0.226-2.438,0.852-3.042c24.45-13.751,52.291-21.019,80.51-21.019c45.536,0,87.885,18.17,119.241,51.157
			l-1.292,1.891L2457.195,928.552z"/>
	</g>
	<g>
		<g>
			<path style="fill:#FFFFFF;" d="M2340.934,916.45L2340.934,916.45c-67.41,0-122.054,54.645-122.054,122.054
				c0,67.408,54.644,122.054,122.054,122.054l0,0c67.407,0,122.054-54.646,122.054-122.054
				C2462.987,971.095,2408.341,916.45,2340.934,916.45z"/>
			<path style="fill:#00A873;" d="M2340.933,1162.792c-68.531,0-124.286-55.755-124.286-124.286
				c0-68.537,55.755-124.292,124.286-124.292c68.537,0,124.292,55.755,124.292,124.292
				C2465.225,1107.037,2409.469,1162.792,2340.933,1162.792z M2340.933,918.684c-66.07,0-119.817,53.752-119.817,119.823
				c0,66.07,53.747,119.817,119.817,119.817c66.07,0,119.823-53.747,119.823-119.817
				C2460.755,972.436,2407.003,918.684,2340.933,918.684z"/>
		</g>
		<path style="fill:#00A873;" d="M2353.89,1032.376c9.505-4.752,15.97-14.532,15.97-25.805c0-15.969-12.986-28.954-28.954-28.954
			c-15.914,0-28.899,12.985-28.899,28.954c0,11.272,6.465,21.053,15.914,25.805c-21.604,5.692-37.519,25.418-37.519,48.847
			c0,15.803,101.064,15.803,101.064,0C2391.465,1057.794,2375.496,1038.067,2353.89,1032.376z"/>
	</g>
	<g>
		<path style="fill:#FFBB00;" d="M419.728,1309.322c-65.839,0-125.121-39.11-151.027-99.628c-0.485-1.134-0.011-2.561,1.123-3.047
			c1.139-0.485,2.398-0.079,2.883,1.055l-2.054,0.88l2.128-0.705c25.228,58.932,82.897,96.976,146.947,96.976
			c8.16,0,16.387-0.638,24.45-1.896c1.264-0.186,2.359,0.644,2.551,1.862c0.192,1.219-0.643,2.359-1.862,2.55
			C436.572,1308.667,428.119,1309.322,419.728,1309.322z M537.565,1258.408c-0.547,0-1.1-0.203-1.529-0.61
			c-0.903-0.847-0.942-2.257-0.096-3.154c6.016-6.393,11.539-13.339,16.42-20.635c0.683-1.027,2.071-1.292,3.098-0.615
			c1.027,0.682,1.304,2.071,0.615,3.098c-5.016,7.505-10.693,14.643-16.883,21.211
			C538.75,1258.171,538.157,1258.408,537.565,1258.408z M566.67,1082.666l2.071-0.841l-2.218,0.485
			c-25.228-58.938-82.897-96.981-146.947-96.981c-8.244,0-16.55,0.649-24.687,1.93c-1.247,0.181-2.365-0.643-2.556-1.857
			c-0.192-1.219,0.638-2.364,1.857-2.556c8.368-1.315,16.911-1.986,25.387-1.986c65.845,0,125.121,39.109,151.027,99.633
			l-1.862,1.331L566.67,1082.666z M284.952,1057.37c-0.429,0-0.857-0.124-1.241-0.378c-1.027-0.683-1.304-2.071-0.615-3.098
			c5.01-7.516,10.676-14.66,16.843-21.234c0.846-0.902,2.257-0.931,3.16-0.101c0.897,0.846,0.942,2.257,0.101,3.159
			c-5.998,6.394-11.516,13.345-16.392,20.658C286.38,1057.02,285.674,1057.37,284.952,1057.37z"/>
	</g>
	<g>
		<g>
			<path style="fill:#FFFFFF;" d="M419.651,1023.038L419.651,1023.038c-67.409,0-122.054,54.646-122.054,122.054
				c0,67.408,54.644,122.054,122.054,122.054l0,0c67.408,0,122.054-54.645,122.054-122.054
				C541.705,1077.684,487.059,1023.038,419.651,1023.038z"/>
			<path style="fill:#00A873;" d="M419.649,1269.383c-68.531,0-124.286-55.755-124.286-124.292
				c0-68.53,55.755-124.286,124.286-124.286c68.536,0,124.291,55.755,124.291,124.286
				C543.941,1213.627,488.185,1269.383,419.649,1269.383z M419.649,1025.274c-66.071,0-119.818,53.747-119.818,119.817
				c0,66.071,53.747,119.823,119.818,119.823c66.07,0,119.823-53.753,119.823-119.823
				C539.472,1079.021,485.719,1025.274,419.649,1025.274z"/>
		</g>
		<path style="fill:#00A873;" d="M432.608,1138.964c9.504-4.752,15.97-14.533,15.97-25.805c0-15.969-12.986-28.954-28.954-28.954
			c-15.914,0-28.899,12.985-28.899,28.954c0,11.272,6.465,21.052,15.914,25.805c-21.604,5.691-37.518,25.418-37.518,48.846
			c0,15.803,101.063,15.803,101.063,0C470.182,1164.382,454.214,1144.656,432.608,1138.964z"/>
	</g>
	<g>
		<path style="fill:#00A873;" d="M661.597,504.503c-27.734,0-55.123-7.082-79.207-20.472c-1.078-0.598-1.467-1.958-0.869-3.036
			c0.593-1.083,1.952-1.473,3.036-0.869c23.423,13.023,50.062,19.908,77.04,19.908c32.361,0,63.492-9.672,90.03-27.976
			c1.016-0.689,2.404-0.446,3.109,0.57c0.7,1.016,0.446,2.41-0.57,3.109C726.877,494.555,694.866,504.503,661.597,504.503z
			 M809.086,408.154c-0.299,0-0.604-0.062-0.897-0.192c-1.128-0.491-1.642-1.811-1.145-2.94c2.951-6.732,5.445-13.701,7.409-20.715
			c0.333-1.185,1.546-1.879,2.754-1.546c1.185,0.333,1.879,1.563,1.546,2.753c-2.015,7.212-4.582,14.383-7.624,21.301
			C810.761,407.657,809.943,408.154,809.086,408.154z M504.887,380.556c-1.016,0-1.93-0.694-2.172-1.721
			c-1.727-7.296-2.951-14.812-3.645-22.334c-0.113-1.224,0.79-2.314,2.02-2.426c1.253-0.107,2.314,0.79,2.426,2.02
			c0.677,7.313,1.868,14.62,3.544,21.713c0.282,1.202-0.457,2.404-1.659,2.686C505.226,380.533,505.057,380.556,504.887,380.556z
			 M517.398,271.838c-0.339,0-0.677-0.073-0.993-0.237c-1.106-0.548-1.557-1.891-1.004-2.991
			c27.818-55.857,83.839-90.56,146.196-90.56c56.659,0,108.442,28.716,138.511,76.82c0.655,1.049,0.333,2.426-0.711,3.081
			c-1.043,0.637-2.431,0.333-3.081-0.711c-29.246-46.789-79.607-74.72-134.719-74.72c-60.654,0-115.139,33.749-142.201,88.077
			C519.006,271.381,518.216,271.838,517.398,271.838z"/>
	</g>
	<g>
		<g>
			<path style="fill:#FFFFFF;" d="M661.598,219.221L661.598,219.221c-67.41,0-122.054,54.645-122.054,122.054
				c0,67.408,54.644,122.054,122.054,122.054l0,0c67.407,0,122.054-54.645,122.054-122.054
				C783.651,273.866,729.005,219.221,661.598,219.221z"/>
			<path style="fill:#0066DB;" d="M661.597,465.563c-68.53,0-124.286-55.755-124.286-124.286
				c0-68.537,55.755-124.292,124.286-124.292c68.536,0,124.292,55.755,124.292,124.292
				C785.889,409.807,730.133,465.563,661.597,465.563z M661.597,221.454c-66.071,0-119.817,53.752-119.817,119.823
				c0,66.07,53.746,119.817,119.817,119.817s119.823-53.747,119.823-119.817C781.419,275.206,727.667,221.454,661.597,221.454z"/>
		</g>
		<path style="fill:#0066DB;" d="M674.555,335.147c9.505-4.752,15.97-14.533,15.97-25.805c0-15.969-12.986-28.954-28.954-28.954
			c-15.914,0-28.899,12.985-28.899,28.954c0,11.272,6.465,21.053,15.914,25.805c-21.605,5.691-37.519,25.418-37.519,48.846
			c0,15.803,101.063,15.803,101.063,0C712.129,360.565,696.161,340.838,674.555,335.147z"/>
	</g>
	<g>
		<path style="fill:#0066DB;" d="M1940.735,483.129c-0.118,0-0.243-0.012-0.367-0.034c-50.197-8.408-93.635-38.63-119.174-82.908
			c-0.615-1.072-0.249-2.438,0.818-3.053c1.083-0.615,2.438-0.248,3.052,0.818c24.867,43.121,67.166,72.548,116.037,80.741
			c1.219,0.203,2.042,1.354,1.834,2.567C1942.755,482.356,1941.807,483.129,1940.735,483.129z M2014.034,479.246
			c-0.976,0-1.873-0.649-2.15-1.631c-0.333-1.191,0.361-2.421,1.546-2.754c5.801-1.62,11.607-3.6,17.272-5.88
			c1.163-0.474,2.444,0.096,2.906,1.236c0.463,1.145-0.09,2.449-1.235,2.906c-5.818,2.342-11.782,4.374-17.735,6.038
			C2014.435,479.218,2014.231,479.246,2014.034,479.246z M2113.904,401.879c-0.384,0-0.773-0.096-1.123-0.305
			c-1.067-0.62-1.428-1.986-0.807-3.053c14.643-25.155,22.385-53.933,22.39-83.224c0-19.829-3.465-39.212-10.292-57.618
			c-0.429-1.157,0.158-2.444,1.314-2.872c1.168-0.435,2.444,0.158,2.872,1.315c7.014,18.908,10.574,38.816,10.574,59.175
			c-0.006,30.081-7.957,59.638-23,85.47C2115.422,401.479,2114.671,401.879,2113.904,401.879z M1802.365,294.312
			c-0.102,0-0.203-0.005-0.31-0.023c-1.219-0.169-2.071-1.298-1.901-2.522c0.863-6.19,2.071-12.375,3.589-18.384
			c0.31-1.191,1.552-1.896,2.714-1.62c1.197,0.305,1.919,1.518,1.62,2.714c-1.484,5.852-2.658,11.878-3.499,17.91
			C1804.425,293.506,1803.465,294.312,1802.365,294.312z M1839.122,210.71c-0.503,0-1.005-0.169-1.422-0.514
			c-0.954-0.784-1.083-2.189-0.299-3.143c32.479-39.341,80.329-61.906,131.283-61.906l0.66,0.006c1.235,0,2.234,0.998,2.234,2.234
			c0,1.236-0.999,2.234-2.234,2.234l-0.717-0.006c-49.56,0-96.151,21.973-127.784,60.281
			C1840.402,210.434,1839.765,210.71,1839.122,210.71z M2086.182,197.574c-0.565,0-1.129-0.214-1.563-0.637
			c-4.345-4.26-8.961-8.306-13.712-12.03c-0.971-0.762-1.14-2.167-0.384-3.137c0.767-0.976,2.172-1.129,3.137-0.384
			c4.881,3.826,9.621,7.984,14.084,12.358c0.88,0.863,0.897,2.279,0.033,3.16C2087.339,197.348,2086.763,197.574,2086.182,197.574z"
			/>
	</g>
	<g>
		<g>
			<path style="fill:#FFFFFF;" d="M1968.688,193.243L1968.688,193.243c-67.41,0-122.054,54.645-122.054,122.054
				c0,67.409,54.644,122.054,122.054,122.054l0,0c67.407,0,122.054-54.646,122.054-122.054
				C2090.741,247.889,2036.095,193.243,1968.688,193.243z"/>
			<path style="fill:#FFBB00;" d="M1968.689,439.584c-68.536,0-124.292-55.755-124.292-124.286
				c0-68.537,55.756-124.292,124.292-124.292c68.53,0,124.286,55.756,124.286,124.292
				C2092.975,383.828,2037.22,439.584,1968.689,439.584z M1968.689,195.475c-66.071,0-119.823,53.752-119.823,119.823
				c0,66.07,53.752,119.817,119.823,119.817c66.07,0,119.817-53.747,119.817-119.817
				C2088.506,249.227,2034.76,195.475,1968.689,195.475z"/>
		</g>
		<path style="fill:#FFBB00;" d="M1981.645,309.168c9.504-4.752,15.97-14.532,15.97-25.804c0-15.969-12.986-28.954-28.954-28.954
			c-15.914,0-28.899,12.985-28.899,28.954c0,11.272,6.465,21.053,15.913,25.804c-21.604,5.691-37.519,25.418-37.519,48.847
			c0,15.803,101.063,15.803,101.063,0C2019.219,334.586,2003.25,314.86,1981.645,309.168z"/>
	</g>
	<g>
		<path style="fill:#F57E00;" d="M694.782,712.084L694.782,712.084c-44.903,0-81.302,36.4-81.302,81.303
			c0,44.902,36.399,81.303,81.302,81.303l0,0c44.902,0,81.303-36.401,81.303-81.303
			C776.085,748.484,739.684,712.084,694.782,712.084z"/>
		<path style="fill:#FFFFFF;" d="M703.414,789.304c6.331-3.165,10.638-9.68,10.638-17.189c0-10.638-8.65-19.287-19.287-19.287
			c-10.601,0-19.251,8.65-19.251,19.287c0,7.509,4.307,14.023,10.601,17.189c-14.391,3.791-24.992,16.932-24.992,32.538
			c0,10.527,67.321,10.527,67.321,0C728.443,806.236,717.806,793.095,703.414,789.304z"/>
	</g>
	<g>
		<path style="fill:#FFBB00;" d="M1203.077,308.919L1203.077,308.919c-37.284,0-67.508,30.224-67.508,67.508
			s30.224,67.508,67.508,67.508l0,0c37.283,0,67.508-30.224,67.508-67.508S1240.359,308.919,1203.077,308.919z"/>
		<path style="fill:#FFFFFF;" d="M1210.243,373.037c5.257-2.628,8.832-8.038,8.832-14.272c0-8.832-7.182-16.015-16.014-16.015
			c-8.802,0-15.985,7.182-15.985,16.015c0,6.235,3.576,11.644,8.802,14.272c-11.949,3.148-20.751,14.059-20.751,27.017
			c0,8.741,55.898,8.741,55.898,0C1231.025,387.096,1222.193,376.185,1210.243,373.037z"/>
	</g>
	<g>
		<path style="fill:#0066DB;" d="M1159.41,1309.649L1159.41,1309.649c-37.284,0-67.508,30.224-67.508,67.508
			c0,37.283,30.224,67.508,67.508,67.508l0,0c37.283,0,67.508-30.225,67.508-67.508
			C1226.918,1339.873,1196.693,1309.649,1159.41,1309.649z"/>
		<path style="fill:#FFFFFF;" d="M1166.577,1373.767c5.257-2.628,8.833-8.038,8.833-14.272c0-8.833-7.183-16.014-16.015-16.014
			c-8.802,0-15.984,7.182-15.984,16.014c0,6.235,3.575,11.644,8.802,14.272c-11.95,3.148-20.752,14.059-20.752,27.017
			c0,8.741,55.898,8.741,55.898,0C1187.359,1387.826,1178.527,1376.915,1166.577,1373.767z"/>
	</g>
	<g>
		<path style="fill:#F57E00;" d="M1945.577,1289.924L1945.577,1289.924c-37.284,0-67.508,30.224-67.508,67.508
			c0,37.283,30.224,67.508,67.508,67.508l0,0c37.283,0,67.508-30.224,67.508-67.508
			C2013.086,1320.148,1982.86,1289.924,1945.577,1289.924z"/>
		<path style="fill:#FFFFFF;" d="M1952.744,1354.042c5.257-2.628,8.833-8.038,8.833-14.273c0-8.832-7.183-16.015-16.015-16.015
			c-8.802,0-15.984,7.182-15.984,16.015c0,6.235,3.576,11.644,8.802,14.273c-11.95,3.148-20.752,14.059-20.752,27.017
			c0,8.741,55.898,8.741,55.898,0C1973.526,1368.101,1964.694,1357.19,1952.744,1354.042z"/>
	</g>
	<g>
		<path style="fill:#0066DB;" d="M1969.504,642.528L1969.504,642.528c-59.208,0-107.203,47.996-107.203,107.203
			c0,59.207,47.995,107.203,107.203,107.203l0,0c59.206,0,107.203-47.997,107.203-107.203
			C2076.707,690.524,2028.71,642.528,1969.504,642.528z"/>
		<path style="fill:#FFFFFF;" d="M1980.884,744.349c8.348-4.174,14.027-12.764,14.027-22.665c0-14.026-11.406-25.431-25.431-25.431
			c-13.978,0-25.383,11.405-25.383,25.431c0,9.9,5.679,18.491,13.977,22.665c-18.975,4.999-32.954,22.325-32.954,42.903
			c0,13.88,88.767,13.88,88.767,0C2013.887,766.674,1999.861,749.347,1980.884,744.349z"/>
	</g>
	<path style="fill:#F57E00;" d="M1486.345,426.168c0,12.428-10.075,22.503-22.502,22.503c-12.428,0-22.503-10.075-22.503-22.503
		c0-12.428,10.075-22.502,22.503-22.502C1476.27,403.666,1486.345,413.741,1486.345,426.168z"/>
	<path style="fill:#F57E00;" d="M964.814,1164.783c0,6.579-5.334,11.913-11.913,11.913s-11.913-5.334-11.913-11.913
		c0-6.58,5.333-11.913,11.913-11.913S964.814,1158.204,964.814,1164.783z"/>
	<path style="fill:#F57E00;" d="M856.272,690.905c0,6.58-5.334,11.913-11.913,11.913c-6.58,0-11.913-5.334-11.913-11.913
		c0-6.579,5.334-11.913,11.913-11.913C850.938,678.992,856.272,684.326,856.272,690.905z"/>
	<path style="fill:#F57E00;" d="M1804.028,1105.218c0,8.772-7.112,15.884-15.884,15.884c-8.773,0-15.884-7.112-15.884-15.884
		c0-8.773,7.111-15.885,15.884-15.885C1796.917,1089.333,1804.028,1096.445,1804.028,1105.218z"/>
	<path style="fill:#00A873;" d="M1859.623,888.133c0,1.462-1.185,2.648-2.648,2.648c-1.462,0-2.647-1.185-2.647-2.648
		c0-1.462,1.186-2.648,2.647-2.648C1858.438,885.486,1859.623,886.672,1859.623,888.133z"/>
	<path style="fill:#00A873;" d="M1658.424,725.321c0,8.041-6.52,14.56-14.561,14.56s-14.56-6.519-14.56-14.56
		c0-8.042,6.519-14.561,14.56-14.561S1658.424,717.279,1658.424,725.321z"/>
	<circle style="fill:#0066DB;" cx="1690.192" cy="358.66" r="10.59"/>
	<circle style="fill:#00A873;" cx="909.219" cy="337.481" r="18.532"/>
	<path style="fill:#00A873;" d="M636.54,1007.265c0,5.848-4.741,10.589-10.59,10.589c-5.848,0-10.59-4.741-10.59-10.589
		c0-5.849,4.742-10.59,10.59-10.59C631.799,996.676,636.54,1001.416,636.54,1007.265z"/>
	<path style="fill:#0066DB;" d="M1372.508,1335.538c0,5.848-4.741,10.589-10.59,10.589c-5.849,0-10.59-4.741-10.59-10.589
		c0-5.849,4.741-10.59,10.59-10.59C1367.767,1324.949,1372.508,1329.69,1372.508,1335.538z"/>
	
		<ellipse transform="matrix(0.2145 -0.9767 0.9767 0.2145 -56.3226 2736.0547)" style="fill:#F57E00;" cx="1672.984" cy="1403.046" rx="11.913" ry="11.913"/>
	<circle style="fill:#FFBB00;" cx="1531.35" cy="162.755" r="10.59"/>
	<g>
		
			<ellipse transform="matrix(0.9239 -0.3827 0.3827 0.9239 -64.2027 770.4782)" style="fill:#FFFFFF;" cx="1904.628" cy="546.624" rx="15.884" ry="15.884"/>
		<path style="fill:#F57E00;" d="M1904.628,564.745c-9.988,0-18.119-8.132-18.119-18.119s8.131-18.118,18.119-18.118
			s18.119,8.131,18.119,18.118S1914.615,564.745,1904.628,564.745z M1904.628,532.976c-7.528,0-13.65,6.122-13.65,13.65
			c0,7.528,6.122,13.65,13.65,13.65c7.527,0,13.65-6.122,13.65-13.65C1918.277,539.099,1912.155,532.976,1904.628,532.976z"/>
	</g>
	<g>
		<path style="fill:#FFFFFF;" d="M723.903,1189.933c0,7.311-5.926,13.237-13.237,13.237s-13.237-5.927-13.237-13.237
			c0-7.31,5.927-13.236,13.237-13.236S723.903,1182.623,723.903,1189.933z"/>
		<path style="fill:#FFBB00;" d="M710.666,1205.406c-8.532,0-15.472-6.94-15.472-15.472s6.94-15.472,15.472-15.472
			c8.532,0,15.472,6.94,15.472,15.472S719.198,1205.406,710.666,1205.406z M710.666,1178.93c-6.066,0-11.003,4.937-11.003,11.003
			s4.937,11.003,11.003,11.003c6.066,0,11.003-4.937,11.003-11.003S716.732,1178.93,710.666,1178.93z"/>
	</g>
	<g>
		<path style="fill:#FFFFFF;" d="M1044.235,1305.093c0,12.428-10.075,22.502-22.502,22.502c-12.428,0-22.503-10.075-22.503-22.502
			s10.075-22.502,22.503-22.502C1034.16,1282.591,1044.235,1292.666,1044.235,1305.093z"/>
		<path style="fill:#00A873;" d="M1021.731,1329.833c-13.639,0-24.738-11.099-24.738-24.737c0-13.639,11.099-24.738,24.738-24.738
			c13.638,0,24.737,11.099,24.737,24.738C1046.469,1318.734,1035.369,1329.833,1021.731,1329.833z M1021.731,1284.827
			c-11.178,0-20.268,9.091-20.268,20.269c0,11.178,9.09,20.269,20.268,20.269c11.178,0,20.269-9.091,20.269-20.269
			C1042,1293.917,1032.909,1284.827,1021.731,1284.827z"/>
	</g>
	<g>
		<circle style="fill:#FFFFFF;" cx="715.961" cy="567.802" r="26.474"/>
		<path style="fill:#0073B3;" d="M715.958,596.513c-15.828,0-28.705-12.882-28.705-28.71c0-15.828,12.877-28.71,28.705-28.71
			c15.828,0,28.71,12.882,28.71,28.71C744.669,583.631,731.786,596.513,715.958,596.513z M715.958,543.562
			c-13.362,0-24.235,10.873-24.235,24.241c0,13.367,10.873,24.241,24.235,24.241c13.368,0,24.241-10.874,24.241-24.241
			C740.199,554.436,729.326,543.562,715.958,543.562z"/>
	</g>
	<g>
		<path style="fill:#FFFFFF;" d="M1062.766,529.416c0,18.276-14.816,33.092-33.092,33.092c-18.276,0-33.093-14.816-33.093-33.092
			c0-18.276,14.816-33.092,33.093-33.092C1047.951,496.323,1062.766,511.139,1062.766,529.416z"/>
		<path style="fill:#00A873;" d="M1029.676,564.745c-19.479,0-35.329-15.851-35.329-35.329c0-19.479,15.851-35.329,35.329-35.329
			s35.323,15.85,35.323,35.329C1064.999,548.894,1049.155,564.745,1029.676,564.745z M1029.676,498.556
			c-17.018,0-30.86,13.841-30.86,30.86s13.842,30.86,30.86,30.86c17.012,0,30.854-13.841,30.854-30.86
			S1046.689,498.556,1029.676,498.556z"/>
	</g>
	<g>
		<path style="fill:#FFFFFF;" d="M1494.287,592.952c0,18.277-14.816,33.092-33.092,33.092s-33.092-14.816-33.092-33.092
			c0-18.276,14.816-33.092,33.092-33.092S1494.287,574.676,1494.287,592.952z"/>
		<path style="fill:#0073B3;" d="M1461.196,628.282c-19.479,0-35.329-15.851-35.329-35.329c0-19.479,15.85-35.329,35.329-35.329
			c19.479,0,35.323,15.85,35.323,35.329C1496.519,612.431,1480.675,628.282,1461.196,628.282z M1461.196,562.093
			c-17.018,0-30.86,13.841-30.86,30.86c0,17.018,13.842,30.86,30.86,30.86c17.012,0,30.854-13.841,30.854-30.86
			C1492.05,575.934,1478.208,562.093,1461.196,562.093z"/>
	</g>
	<g>
		<path style="fill:#FFFFFF;" d="M2153.481,909.313c0,16.083-13.038,29.121-29.121,29.121c-16.083,0-29.121-13.038-29.121-29.121
			c0-16.083,13.038-29.121,29.121-29.121C2140.442,880.191,2153.481,893.229,2153.481,909.313z"/>
		<path style="fill:#F57E00;" d="M2124.36,940.667c-17.289,0-31.357-14.067-31.357-31.356c0-17.289,14.067-31.357,31.357-31.357
			s31.356,14.068,31.356,31.357C2155.716,926.6,2141.649,940.667,2124.36,940.667z M2124.36,882.423
			c-14.829,0-26.887,12.058-26.887,26.887c0,14.829,12.058,26.887,26.887,26.887c14.829,0,26.887-12.058,26.887-26.887
			C2151.248,894.482,2139.189,882.423,2124.36,882.423z"/>
	</g>
	<g>
		<path style="fill:#FFFFFF;" d="M2029.055,1183.315c0,22.662-18.372,41.034-41.034,41.034c-22.662,0-41.034-18.372-41.034-41.034
			c0-22.663,18.372-41.035,41.034-41.035C2010.683,1142.28,2029.055,1160.652,2029.055,1183.315z"/>
		<path style="fill:#F57E00;" d="M1988.021,1226.583c-23.857,0-43.268-19.411-43.268-43.268s19.411-43.268,43.268-43.268
			s43.268,19.411,43.268,43.268S2011.879,1226.583,1988.021,1226.583z M1988.021,1144.515c-21.397,0-38.8,17.403-38.8,38.8
			s17.403,38.799,38.8,38.799s38.799-17.402,38.799-38.799S2009.418,1144.515,1988.021,1144.515z"/>
	</g>
	<g>
		<path style="fill:#FFFFFF;" d="M1557.823,1265.383c0,16.814-13.631,30.445-30.445,30.445c-16.814,0-30.444-13.631-30.444-30.445
			c0-16.814,13.631-30.444,30.444-30.444C1544.193,1234.938,1557.823,1248.569,1557.823,1265.383z"/>
		<path style="fill:#0066DB;" d="M1527.379,1298.065c-18.017,0-32.677-14.66-32.677-32.683c0-18.017,14.66-32.677,32.677-32.677
			s32.677,14.66,32.677,32.677C1560.056,1283.405,1545.396,1298.065,1527.379,1298.065z M1527.379,1237.174
			c-15.557,0-28.208,12.651-28.208,28.208s12.651,28.213,28.208,28.213s28.208-12.656,28.208-28.213
			S1542.936,1237.174,1527.379,1237.174z"/>
	</g>
	<g>
		<path style="fill:#FFFFFF;" d="M1044.235,1074.773c0,8.041-6.519,14.56-14.56,14.56c-8.042,0-14.561-6.519-14.561-14.56
			c0-8.042,6.519-14.56,14.561-14.56C1037.716,1060.212,1044.235,1066.731,1044.235,1074.773z"/>
		<path style="fill:#FFBB00;" d="M1029.676,1091.57c-9.26,0-16.799-7.539-16.799-16.799c0-9.259,7.539-16.792,16.799-16.792
			c9.259,0,16.792,7.533,16.792,16.792C1046.469,1084.031,1038.936,1091.57,1029.676,1091.57z M1029.676,1062.448
			c-6.8,0-12.329,5.53-12.329,12.324c0,6.8,5.53,12.329,12.329,12.329c6.793,0,12.324-5.53,12.324-12.329
			C1042,1067.978,1036.469,1062.448,1029.676,1062.448z"/>
	</g>
	<g>
		<path style="fill:#FFFFFF;" d="M1017.761,762.383c0,8.042-6.519,14.561-14.56,14.561c-8.042,0-14.561-6.519-14.561-14.561
			c0-8.041,6.519-14.56,14.561-14.56C1011.242,747.823,1017.761,754.342,1017.761,762.383z"/>
		<path style="fill:#F57E00;" d="M1003.2,779.179c-9.26,0-16.792-7.533-16.792-16.793c0-9.259,7.533-16.798,16.792-16.798
			c9.26,0,16.793,7.539,16.793,16.798C1019.993,771.646,1012.46,779.179,1003.2,779.179z M1003.2,750.057
			c-6.793,0-12.324,5.53-12.324,12.329c0,6.794,5.53,12.324,12.324,12.324c6.794,0,12.323-5.53,12.323-12.324
			C1015.524,755.587,1009.994,750.057,1003.2,750.057z"/>
	</g>
	<g>
		<path style="fill:#FFFFFF;" d="M1737.844,749.147c0,6.58-5.334,11.913-11.913,11.913s-11.913-5.333-11.913-11.913
			c0-6.58,5.334-11.913,11.913-11.913S1737.844,742.567,1737.844,749.147z"/>
		<path style="fill:#FFBB00;" d="M1725.929,763.295c-7.798,0-14.146-6.348-14.146-14.147c0-7.804,6.348-14.152,14.146-14.152
			c7.804,0,14.152,6.348,14.152,14.152C1740.081,756.946,1733.733,763.295,1725.929,763.295z M1725.929,739.466
			c-5.338,0-9.677,4.345-9.677,9.682c0,5.339,4.339,9.677,9.677,9.677c5.338,0,9.683-4.339,9.683-9.677
			C1735.612,743.81,1731.267,739.466,1725.929,739.466z"/>
	</g>
	<g>
		<path style="fill:#F57E00;" d="M1300.853,1119.044c-0.119,0-0.243-0.011-0.367-0.033
			c-64.315-10.772-119.964-49.493-152.686-106.23c-0.615-1.072-0.248-2.438,0.818-3.053c1.089-0.621,2.438-0.249,3.053,0.818
			c32.051,55.575,86.559,93.505,149.549,104.063c1.219,0.203,2.042,1.354,1.834,2.567
			C1302.873,1118.271,1301.925,1119.044,1300.853,1119.044z M1395.035,1114.056c-0.976,0-1.873-0.644-2.15-1.631
			c-0.333-1.19,0.361-2.42,1.546-2.753c7.545-2.111,15.032-4.661,22.266-7.584c1.134-0.474,2.443,0.096,2.906,1.235
			c0.462,1.14-0.091,2.444-1.236,2.906c-7.38,2.985-15.032,5.586-22.729,7.742
			C1395.436,1114.028,1395.233,1114.056,1395.035,1114.056z M1523.373,1014.643c-0.384,0-0.767-0.096-1.123-0.305
			c-1.067-0.621-1.428-1.986-0.807-3.053c18.88-32.434,28.856-69.529,28.851-107.268c0-25.55-4.463-50.536-13.266-74.258
			c-0.429-1.157,0.158-2.443,1.315-2.872c1.174-0.429,2.443,0.164,2.872,1.315c8.989,24.224,13.549,49.735,13.549,75.815
			c0.005,38.528-10.18,76.396-29.461,109.513C1524.891,1014.242,1524.141,1014.643,1523.373,1014.643z M1123.063,876.414
			c-0.102,0-0.203-0.006-0.305-0.023c-1.224-0.169-2.076-1.298-1.907-2.516c1.094-7.917,2.641-15.845,4.593-23.564
			c0.31-1.196,1.552-1.912,2.714-1.619c1.196,0.305,1.918,1.518,1.62,2.714c-1.918,7.561-3.431,15.325-4.503,23.078
			C1125.122,875.601,1124.163,876.414,1123.063,876.414z M1170.292,768.994c-0.502,0-1.004-0.169-1.422-0.514
			c-0.953-0.784-1.083-2.189-0.299-3.143c41.603-50.406,102.911-79.314,168.197-79.314h0.846c1.236,0,2.234,0.999,2.234,2.234
			c0,1.236-0.998,2.235-2.234,2.235h-0.846c-63.949,0-123.998,28.315-164.755,77.689
			C1171.573,768.717,1170.935,768.994,1170.292,768.994z M1487.745,752.116c-0.564,0-1.128-0.214-1.563-0.637
			c-5.581-5.468-11.528-10.688-17.678-15.518c-0.965-0.762-1.134-2.167-0.373-3.138c0.761-0.976,2.161-1.134,3.137-0.372
			c6.275,4.926,12.34,10.258,18.039,15.833c0.881,0.863,0.897,2.279,0.034,3.16C1488.901,751.89,1488.326,752.116,1487.745,752.116z
			"/>
	</g>
	<g>
		<path style="fill:#0066DB;" d="M1336.769,1181.577c-1.235,0-2.516-1.004-2.516-2.24c0-1.23,0.711-2.234,1.947-2.234l0.632,0.006
			c46.716,0,92.867-12.025,133.393-34.77c1.089-0.61,2.444-0.22,3.042,0.852c0.604,1.078,0.22,2.438-0.852,3.042
			C1431.216,1169.355,1384.314,1181.577,1336.769,1181.577z M1608.47,951.005c-0.118,0-0.237-0.012-0.361-0.028
			c-1.219-0.203-2.043-1.349-1.845-2.567c0.931-5.699,1.692-11.534,2.268-17.346c0.124-1.224,1.293-2.048,2.444-2.003
			c1.224,0.124,2.122,1.213,2.003,2.443c-0.581,5.902-1.36,11.833-2.303,17.628C1610.496,950.226,1609.548,951.005,1608.47,951.005z
			 M1062.714,879.551c-0.068,0-0.141-0.006-0.214-0.012c-1.23-0.118-2.127-1.213-2.008-2.437c0.57-5.914,1.337-11.85,2.269-17.634
			c0.203-1.213,1.314-2.026,2.561-1.851c1.219,0.198,2.048,1.343,1.851,2.562c-0.92,5.693-1.67,11.533-2.234,17.351
			C1064.824,878.688,1063.854,879.551,1062.714,879.551z M1201.722,666.263c-0.779,0-1.535-0.412-1.947-1.14
			c-0.604-1.072-0.225-2.432,0.852-3.041c41.327-23.304,88.404-35.623,136.141-35.623h1.128c1.236,0,2.235,0.999,2.235,2.235
			c0,1.235-0.999,2.234-2.235,2.234h-1.128c-46.97,0-93.285,12.12-133.952,35.047
			C1202.472,666.167,1202.094,666.263,1201.722,666.263z"/>
	</g>
	<g>
		<g>
			<path style="fill:#FFFFFF;" d="M1336.769,734.423L1336.769,734.423c-93.666,0-169.595,75.93-169.595,169.594
				s75.929,169.595,169.595,169.595l0,0c93.663,0,169.595-75.93,169.595-169.595S1430.431,734.423,1336.769,734.423z"/>
			<path style="fill:#0073B3;" d="M1336.769,1075.849c-94.746,0-171.832-77.085-171.832-171.831
				c0-94.747,77.085-171.832,171.832-171.832c94.747,0,171.832,77.085,171.832,171.832
				C1508.6,998.764,1431.515,1075.849,1336.769,1075.849z M1336.769,736.655c-92.286,0-167.362,75.076-167.362,167.363
				c0,92.286,75.076,167.362,167.362,167.362s167.363-75.076,167.363-167.362C1504.131,811.732,1429.055,736.655,1336.769,736.655z"
				/>
		</g>
		<path style="fill:#0073B3;" d="M1354.772,895.502c13.207-6.603,22.19-20.193,22.19-35.856c0-22.189-18.044-40.232-40.232-40.232
			c-22.113,0-40.156,18.043-40.156,40.232c0,15.663,8.983,29.253,22.112,35.856c-30.02,7.909-52.133,35.319-52.133,67.873
			c0,21.959,140.429,21.959,140.429,0C1406.982,930.821,1384.794,903.411,1354.772,895.502z"/>
	</g>
</g>
</svg>
