<?xml version="1.0" encoding="utf-8"?>
<!-- Generator: Adobe Illustrator 27.5.0, SVG Export Plug-In . SVG Version: 6.00 Build 0)  -->
<svg version="1.1" id="Layer_1" xmlns="http://www.w3.org/2000/svg" xmlns:xlink="http://www.w3.org/1999/xlink" x="0px" y="0px"
	 viewBox="0 0 900 900" style="enable-background:new 0 0 900 900;" xml:space="preserve">
<g>
	<path style="fill:none;stroke:#466D2D;stroke-width:9.3939;stroke-linecap:round;stroke-linejoin:round;stroke-miterlimit:10;" d="
		M448.346,541.816c0,0,0,2.144,0,4.765c0,2.621,8.839,4.765,19.642,4.765h34.188c10.803,0,18.217-8.723,16.475-19.385l-3.503-21.442
		c-1.742-10.662-2.527-19.385-1.745-19.385c0.782,0,1.422,0,1.422,0"/>
	<path style="fill:none;stroke:#CCDDD8;stroke-width:9.3939;stroke-linecap:round;stroke-linejoin:round;stroke-miterlimit:10;" d="
		M525.831,530.272c1.55,10.025-5.482,18.228-15.626,18.228h-37.437c-10.144,0-18.444-7.384-18.444-16.409v-8.605"/>
	<path style="fill:none;stroke:#E1EFEA;stroke-width:9.3939;stroke-linecap:round;stroke-linejoin:round;stroke-miterlimit:10;" d="
		M525.831,530.272l-4.201-27.172c-0.213-1.38-0.469-2.725-0.758-4.018"/>
	<path style="fill:none;stroke:#97B1C9;stroke-width:9.3939;stroke-linecap:round;stroke-linejoin:round;stroke-miterlimit:10;" d="
		M520.872,499.081c-1.816-8.109-4.983-14.209-7.62-14.209c-3.058,0-5.56,0-5.56,0"/>
	<path style="fill:none;stroke:#97B1C9;stroke-width:9.3939;stroke-linecap:round;stroke-linejoin:round;stroke-miterlimit:10;" d="
		M454.324,515.681c0,0,0-1.221,0,7.805"/>
	<g>
		<path style="fill:#B8CC27;" d="M525.004,484.873c0,5.19-4.21,9.39-9.39,9.39h-42.85c-5.44,0-9.05,3.11-9.05,5.16v14.55
			c0,5.19-4.2,9.39-9.39,9.39c-5.19,0-9.39-4.2-9.39-9.39v-14.55c0-13.2,12.48-23.95,27.83-23.95h42.85
			C520.794,475.473,525.004,479.683,525.004,484.873z"/>
	</g>
	<g>
		<path style="fill:#87A143;" d="M447.738,523.367c-5.188,0-9.394-4.206-9.394-9.394V491.36c0-15.35,12.488-15.838,27.838-15.838
			h45.722c5.188,0,9.132-0.077,8.658,1.046c-1.425,3.374-4.765,5.742-8.658,5.742h-45.722c-4.99,0-9.05,4.06-9.05,9.05v22.613
			C457.132,519.161,452.926,523.367,447.738,523.367z"/>
	</g>
	<path style="fill:#3C5929;" d="M525.004,484.873c0,5.19-4.21,9.39-9.39,9.39h-18.74c-0.77-5.57-1.55-12.6-1.55-13.11
		c0-0.4,0.05-2.7,0.46-5.68h19.83C520.794,475.473,525.004,479.683,525.004,484.873z"/>
</g>
<polygon style="fill:#F7D428;" points="290.181,344.293 271.179,344.79 270.759,325.789 289.761,325.292 "/>
<g>
	<g>
		<g>
			<polygon style="fill:#B2181F;" points="690.583,396.867 690.583,424.139 841.266,424.139 841.266,417.081 837.205,417.081 
				837.205,403.926 841.266,403.926 841.266,396.867 			"/>
			<polygon style="fill:#E63C3D;" points="769.498,396.867 769.498,424.139 841.266,424.139 841.266,417.081 837.205,417.081 
				837.205,403.926 841.266,403.926 841.266,396.867 			"/>
			<polygon style="fill:#FFC41F;" points="703.877,396.869 832.94,396.869 832.94,363.587 774.352,363.587 			"/>
			<polygon style="fill:#E58A28;" points="692.155,396.869 774.352,396.869 774.352,363.587 692.155,373.566 692.155,378.362 
				698.157,378.362 698.157,390.736 692.155,390.736 			"/>
			<polygon style="fill:#BDD1D6;" points="696.659,378.466 696.659,390.734 766.741,390.734 766.741,371.216 			"/>
			<rect x="766.834" y="403.928" style="fill:#FFFFFF;" width="71.553" height="13.151"/>
		</g>
		<rect x="696.545" y="403.928" style="fill:#BDD1D6;" width="70.288" height="13.151"/>
		<rect x="796.863" y="372.924" style="fill:#FFFFFF;" width="28.333" height="15.79"/>
		<rect x="816.945" y="372.924" style="fill:#4B4051;" width="8.252" height="15.79"/>
		<path style="fill:#4B4051;" d="M791.491,380.819c0-3.273-2.466-5.927-5.508-5.927s-5.508,2.654-5.508,5.927
			s2.466,5.927,5.508,5.927S791.491,384.092,791.491,380.819z"/>
	</g>
	<polygon style="opacity:0.5;fill:#4B4051;" points="766.741,384.607 766.741,390.734 754.217,390.734 735.307,381.996 
		766.741,381.996 	"/>
	<polygon style="fill:#FFFFFF;" points="766.741,384.607 758.294,386.75 735.307,381.996 766.741,381.996 	"/>
</g>
<polygon style="fill:#FC4D4C;" points="292.4,369.171 273.456,370.715 271.987,351.767 290.931,350.223 "/>
<rect x="327.75" y="481.254" style="fill:#9E7E6D;" width="44.412" height="58.998"/>
<rect x="316.964" y="468.592" style="fill:#FFC41F;" width="47.9" height="56.682"/>
<polygon style="fill:#E58A28;" points="307.726,525.275 355.626,518.328 355.626,468.592 307.726,468.592 "/>
<rect x="299.006" y="475.539" style="fill:#347799;" width="47.9" height="49.736"/>
<rect x="289.768" y="475.539" style="fill:#20496B;" width="47.9" height="49.736"/>
<rect x="317.864" y="487.043" style="fill:#9E7E6D;" width="53.689" height="49.736"/>
<rect x="369.495" y="481.254" style="fill:#B59885;" width="11.122" height="62.472"/>
<g style="opacity:0.7;">
	<path style="fill:#8A829E;" d="M818.391,736.018c0-3.288-3.137-5.978-6.971-5.978H40.377c-3.834,0-6.97,2.69-6.97,5.978
		c0,3.288,3.137,5.978,6.97,5.978H811.42C815.254,741.996,818.391,739.306,818.391,736.018z"/>
</g>
<g>
	<path style="fill:#433A47;" d="M241.364,726.88c0,6.535-5.298,11.833-11.833,11.833c-6.535,0-11.833-5.298-11.833-11.833H241.364z"
		/>
</g>
<g>
	<path style="fill:#433A47;" d="M162.47,726.88c0,6.535-5.298,11.833-11.833,11.833c-6.535,0-11.833-5.298-11.833-11.833H162.47z"/>
</g>
<g>
	<path style="fill:#433A47;" d="M324.953,726.88c0,6.535-5.298,11.833-11.833,11.833c-6.535,0-11.833-5.298-11.833-11.833H324.953z"
		/>
</g>
<g>
	<path style="fill:#433A47;" d="M261.111,726.88c0,6.535-5.298,11.833-11.833,11.833s-11.833-5.298-11.833-11.833H261.111z"/>
</g>
<g>
	<path style="fill:#574D5E;" d="M544.861,725.88c0,6.535-5.298,11.833-11.833,11.833s-11.833-5.298-11.833-11.833H544.861z"/>
	<path style="fill:#574D5E;" d="M625.456,725.88c0,6.535-5.298,11.833-11.833,11.833c-6.535,0-11.833-5.298-11.833-11.833H625.456z"
		/>
	<path style="fill:#574D5E;" d="M689.943,725.88c0,6.535-5.298,11.833-11.833,11.833c-6.535,0-11.833-5.298-11.833-11.833H689.943z"
		/>
	<rect x="561.524" y="584.301" style="fill:#B7BEBC;" width="21.315" height="95.635"/>
	<polygon style="fill:#7F8A99;" points="561.524,584.573 561.524,614.511 582.839,607.973 582.839,584.573 	"/>
	<polygon style="fill:#574D5E;" points="548.473,692.858 548.473,699.421 595.889,699.421 595.889,687.767 	"/>
	<path style="fill:#443635;" d="M599.81,571.082c0-6.367-5.21-11.577-11.577-11.577H556.13c-6.367,0-11.577,5.21-11.577,11.577
		v13.659c0,6.367,5.21,11.577,11.577,11.577h32.103c6.367,0,11.577-5.21,11.577-11.577V571.082z"/>
	<path style="fill:#443635;" d="M638.957,574.649c0-5.458-5.21-9.924-11.577-9.924H516.982c-6.367,0-11.577,4.466-11.577,9.924
		c0,5.458,5.21,9.924,11.577,9.924H627.38C633.747,584.573,638.957,580.107,638.957,574.649z"/>
	<path style="fill:#B8CC27;" d="M681.698,559.783c0.877,6.307-3.615,11.467-9.982,11.467h-126.8c-6.367,0-12.295-5.16-13.172-11.467
		l-9.861-70.882c-0.877-6.307-0.358-16.528,1.154-22.713l33.654-137.673c1.512-6.185,7.788-12.569,13.947-14.186l65.816-17.277
		c6.159-1.617,16.408-2.94,22.775-2.94h12.486c6.368,0,11.207,5.197,10.755,11.548l-11.407,160.225
		c-0.452,6.352-0.104,16.708,0.773,23.015L681.698,559.783z"/>
	<path style="fill:#466D2D;" d="M652.544,571.253h-124.19c-6.36,0-12.29-5.16-13.17-11.47l-3.32-23.84l-2.29-16.46l-4.25-30.58
		c-0.19-1.36-0.32-2.89-0.39-4.53c-0.29-6,0.17-13.37,1.21-18.26l5.44-25.46l49.74-106.503c1.33-6.23,8.417-14.563,14.667-13.333
		l74.873-5.423c6.25,1.24,11,7.44,10.56,13.79l-7.96,114.1l-0.22,3.16l-1.36,19.44c-0.45,6.35-0.09,16.71,0.78,23.02l2.63,18.9
		l3.35,24.06l3.89,27.92C663.404,566.093,658.914,571.253,652.544,571.253z"/>
	<path style="fill:#3C5929;" d="M663.324,519.733l-1.25,11.5l-3.43,0.63l-22.57,4.12l-83.25,0.75l-40.96-0.79l-2.873-22.46
		c2.38,6.74,17.49,4,44.25,4h89.25c6.69,0,11.93-3.51,12.22-15.68c0.09-3.74,0.303-2.289-0.637-7.82l4.17-2.01L663.324,519.733z"/>
	<path style="fill:#87A143;" d="M505.654,468.903c43.67-6.92,125.223-27.507,151.003-34.087c7.26-1.86,8.167,8.667,8.167,8.667
		l-11.36-0.2l-128.64-2.3l-13.24-0.33l-5.44,25.46L505.654,468.903z"/>
	<path style="fill:#87A143;" d="M523.191,439.912c-6.366-0.123-10.481-5.318-9.144-11.543l26.404-122.938
		c1.337-6.226,7.641-11.319,14.008-11.319h98.088c6.367,0,11.206,5.197,10.752,11.548l-8.952,125.229
		c-0.454,6.351-6.034,11.447-12.401,11.324L523.191,439.912z"/>
	<path style="fill:#87A143;" d="M664.124,552.727c0,10.188-8.336,18.524-18.524,18.524H445.42c-10.188,0-18.524-8.336-18.524-18.524
		v-5.174c0-10.188,8.336-18.524,18.524-18.524h200.181c10.188,0,18.524,8.336,18.524,18.524V552.727z"/>
	<path style="fill:#B8CC27;" d="M584.917,553.884c0,9.551,7.815,17.366,17.366,17.366h51.001c9.551,0,17.781-7.804,18.287-17.341
		l0.4-7.538c0.507-9.538-6.893-17.342-16.445-17.342h-53.244c-9.551,0-17.366,7.815-17.366,17.366V553.884z"/>
	<g>
		<path style="fill:#574D5E;" d="M467.767,709.126c-2.737,0-5.171-1.95-5.686-4.739c-0.581-3.144,1.498-6.163,4.641-6.743
			l104.408-19.279c0.69-0.128,1.398-0.129,2.088-0.003l105.929,19.279c3.145,0.572,5.231,3.586,4.659,6.732
			c-0.572,3.145-3.588,5.232-6.732,4.659l-104.885-19.089l-103.364,19.086C468.469,709.094,468.115,709.126,467.767,709.126z"/>
	</g>
	<g>
		<path style="fill:#574D5E;" d="M612.852,709.126c-0.831,0-1.675-0.18-2.476-0.559l-38.147-18.081l-36.643,18.044
			c-2.869,1.412-6.338,0.232-7.75-2.636c-1.412-2.868-0.232-6.338,2.636-7.75l39.153-19.279c1.585-0.781,3.439-0.794,5.037-0.037
			l40.674,19.279c2.889,1.369,4.121,4.821,2.751,7.71C617.097,707.904,615.019,709.126,612.852,709.126z"/>
	</g>
	<path style="fill:#574D5E;" d="M479.693,725.88c0,6.535-5.298,11.833-11.833,11.833c-6.535,0-11.833-5.298-11.833-11.833H479.693z"
		/>
	<g>
		<path style="fill:#574D5E;" d="M456.028,726.458c-0.959,0-1.737-0.778-1.737-1.737c0-7.482,6.087-13.569,13.569-13.569
			c7.482,0,13.569,6.087,13.569,13.569c0,0.959-0.778,1.737-1.737,1.737H456.028z"/>
		<g>
			<path style="fill:#574D5E;" d="M467.861,712.889c6.535,0,11.833,5.298,11.833,11.833h-23.666
				C456.028,718.187,461.325,712.889,467.861,712.889L467.861,712.889z M467.861,709.416c-8.44,0-15.306,6.866-15.306,15.306
				c0,1.918,1.555,3.473,3.473,3.473h23.666c1.918,0,3.473-1.555,3.473-3.473C483.166,716.282,476.3,709.416,467.861,709.416
				L467.861,709.416z"/>
		</g>
	</g>
	<g>
		<path style="fill:#574D5E;" d="M521.195,726.458c-0.959,0-1.737-0.778-1.737-1.737c0-7.482,6.087-13.569,13.57-13.569
			c7.482,0,13.569,6.087,13.569,13.569c0,0.959-0.778,1.737-1.737,1.737H521.195z"/>
		<g>
			<path style="fill:#574D5E;" d="M533.028,712.889c6.535,0,11.833,5.298,11.833,11.833h-23.665
				C521.195,718.187,526.493,712.889,533.028,712.889L533.028,712.889z M533.028,709.416c-8.44,0-15.306,6.866-15.306,15.306
				c0,1.918,1.555,3.473,3.473,3.473h23.665c1.918,0,3.473-1.555,3.473-3.473C548.334,716.282,541.468,709.416,533.028,709.416
				L533.028,709.416z"/>
		</g>
	</g>
	<g>
		<path style="fill:#574D5E;" d="M601.791,726.458c-0.959,0-1.737-0.778-1.737-1.737c0-7.482,6.087-13.569,13.57-13.569
			c7.482,0,13.569,6.087,13.569,13.569c0,0.959-0.778,1.737-1.737,1.737H601.791z"/>
		<g>
			<path style="fill:#574D5E;" d="M613.624,712.889c6.535,0,11.833,5.298,11.833,11.833h-23.665
				C601.791,718.187,607.089,712.889,613.624,712.889L613.624,712.889z M613.624,709.416c-8.44,0-15.306,6.866-15.306,15.306
				c0,1.918,1.555,3.473,3.473,3.473h23.665c1.918,0,3.473-1.555,3.473-3.473C628.929,716.282,622.063,709.416,613.624,709.416
				L613.624,709.416z"/>
		</g>
	</g>
	<g>
		<path style="fill:#574D5E;" d="M666.277,726.458c-0.959,0-1.737-0.778-1.737-1.737c0-7.482,6.087-13.569,13.57-13.569
			c7.482,0,13.569,6.087,13.569,13.569c0,0.959-0.778,1.737-1.737,1.737H666.277z"/>
		<g>
			<path style="fill:#574D5E;" d="M678.11,712.889c6.535,0,11.833,5.298,11.833,11.833h-23.665
				C666.277,718.187,671.575,712.889,678.11,712.889L678.11,712.889z M678.11,709.416c-8.44,0-15.306,6.866-15.306,15.306
				c0,1.918,1.555,3.473,3.473,3.473h23.665c1.918,0,3.473-1.555,3.473-3.473C693.416,716.282,686.55,709.416,678.11,709.416
				L678.11,709.416z"/>
		</g>
	</g>
	<path style="fill:#574D5E;" d="M586.754,681.094v-27.202c0-3.184-2.605-5.789-5.789-5.789h-17.568
		c-3.184,0-5.789,2.605-5.789,5.789v27.202H586.754z"/>
	<g>
		<path style="fill:#574D5E;" d="M467.86,722.446c-3.197,0-5.789-2.591-5.789-5.789v-12.531c0-3.197,2.592-5.789,5.789-5.789
			c3.197,0,5.788,2.591,5.788,5.789v12.531C473.649,719.854,471.057,722.446,467.86,722.446z"/>
	</g>
	<g>
		<path style="fill:#574D5E;" d="M533.028,722.446c-3.197,0-5.789-2.591-5.789-5.789v-12.531c0-3.197,2.592-5.789,5.789-5.789
			c3.197,0,5.789,2.591,5.789,5.789v12.531C538.817,719.854,536.225,722.446,533.028,722.446z"/>
	</g>
	<g>
		<path style="fill:#574D5E;" d="M613.624,722.446c-3.197,0-5.789-2.591-5.789-5.789v-12.531c0-3.197,2.592-5.789,5.789-5.789
			c3.197,0,5.789,2.591,5.789,5.789v12.531C619.412,719.854,616.82,722.446,613.624,722.446z"/>
	</g>
	<g>
		<path style="fill:#574D5E;" d="M678.11,722.446c-3.197,0-5.789-2.591-5.789-5.789v-12.531c0-3.197,2.592-5.789,5.789-5.789
			c3.197,0,5.789,2.591,5.789,5.789v12.531C683.899,719.854,681.307,722.446,678.11,722.446z"/>
	</g>
</g>
<rect x="803.261" y="434.33" style="fill:#574D5E;" width="17.6" height="307.666"/>
<rect x="714.573" y="434.33" style="fill:#574D5E;" width="17.6" height="307.666"/>
<rect x="192.544" y="434.33" style="fill:#574D5E;" width="17.6" height="304.622"/>
<rect x="103.983" y="434.33" style="fill:#574D5E;" width="17.6" height="304.622"/>
<rect x="110.824" y="469.351" style="fill:#574D5E;" width="88.869" height="17.6"/>
<rect x="110.824" y="689.662" style="fill:#574D5E;" width="88.869" height="17.6"/>
<rect x="132.1" y="462.942" style="fill:#D4BD96;" width="200.118" height="259.644"/>
<rect x="250.371" y="462.942" style="fill:#B59885;" width="81.847" height="259.644"/>
<polygon style="fill:#B59885;" points="250.376,658.024 250.376,722.59 332.215,722.59 332.215,633.04 "/>
<rect x="132.102" y="712.17" style="fill:#433A47;" width="200.113" height="15.051"/>
<rect x="132.1" y="712.165" style="fill:#433A47;" width="118.271" height="15.052"/>
<path style="opacity:0.4;fill:#754559;" d="M640.557,399.891c0.336,0.301,0.544,0.498,0.614,0.567
	C641.02,400.261,640.812,400.064,640.557,399.891z"/>
<path style="opacity:0.4;fill:#754559;" d="M616.685,396.383l-0.915-0.035C616.036,396.371,616.337,396.383,616.685,396.383z"/>
<path style="fill:#EDE5E3;" d="M451.337,365.784c-0.313,1.285-0.613,2.836-0.891,4.828L451.337,365.784z"/>
<rect x="720.5" y="469.351" style="fill:#574D5E;" width="88.869" height="17.6"/>
<rect x="720.5" y="689.662" style="fill:#574D5E;" width="88.869" height="17.6"/>
<path style="fill:#A0A6BA;" d="M412.369,420.051c0.206,1.899-1.188,3.453-3.098,3.453H288.979c-1.91,0-3.642-1.554-3.849-3.453
	l-10.827-99.631c-0.206-1.899,1.188-3.453,3.098-3.453h120.292c1.91,0,3.642,1.554,3.849,3.453L412.369,420.051z"/>
<path style="fill:#81889B;" d="M408.669,420.03c0,1.91-1.563,3.473-3.473,3.473H286.517c-1.91,0-3.473-1.563-3.473-3.473v-3.816
	c0-1.91,1.563-3.473,3.473-3.473h118.678c1.91,0,3.473,1.563,3.473,3.473V420.03z"/>
<path style="fill:#CDD3E0;" d="M459.311,420.03c0,1.91-1.563,3.473-3.473,3.473h-49.157c-1.91,0-3.473-1.563-3.473-3.473v-3.816
	c0-1.91,1.563-3.473,3.473-3.473h49.157c1.91,0,3.473,1.563,3.473,3.473V420.03z"/>
<g style="opacity:0.7;">
	<path style="fill:#3B2D3C;" d="M432.517,418.756c0,0.635-0.519,1.154-1.154,1.154l-4.116,0c-0.635,0-1.154-0.519-1.154-1.154
		v-1.268c0-0.634,0.519-1.154,1.154-1.154h4.116c0.635,0,1.154,0.519,1.154,1.154V418.756z"/>
</g>
<g>
	<path style="fill:#FFFFFF;" d="M532.945,426.982h-61.213c-21.232,0-28.996-3.763-33.635-6.012c-2.1-1.018-3.487-1.69-5.245-1.69
		c-0.639,0-1.158-0.518-1.158-1.158c0-0.639,0.519-1.158,1.158-1.158c2.289,0,4.039,0.848,6.255,1.922
		c4.749,2.302,11.926,5.78,32.626,5.78h61.213c0.639,0,1.158,0.518,1.158,1.158C534.103,426.463,533.584,426.982,532.945,426.982z"
		/>
</g>
<rect x="69.248" y="423.508" style="fill:#A85238;" width="684.454" height="22.402"/>
<rect x="727.436" y="423.503" style="fill:#F7A45E;" width="128.159" height="22.405"/>
<path style="fill:#CDD3E0;" d="M413.524,420.051c0.206,1.899-1.188,3.453-3.098,3.453h-0.266c-1.91,0-3.642-1.554-3.848-3.453
	l-3.835-35.316c-0.206-1.899-0.544-5.007-0.75-6.906l-2.434-22.42c-0.206-1.899-0.417-3.833-0.468-4.298
	c-0.051-0.465-0.262-2.399-0.47-4.298l-0.693-6.351c-0.207-1.899-0.546-5.007-0.752-6.906l-1.426-13.135
	c-0.206-1.899,1.188-3.453,3.098-3.453h0.266c1.91,0,3.641,1.554,3.846,3.453l0.158,1.464c0.205,1.899,0.417,3.857,0.471,4.351
	c0.054,0.493,0.267,2.451,0.474,4.35l1.241,11.421c0.206,1.899,0.443,4.081,0.526,4.848s0.32,2.949,0.527,4.848l2.326,21.32
	c0.207,1.899,0.545,5.007,0.751,6.906L413.524,420.051z"/>
<g style="opacity:0.4;">
	<path style="fill:#754559;" d="M419.168,420.275c0,0.635-0.519,1.154-1.154,1.154h-5.271c-0.635,0-1.154-0.519-1.154-1.154v-1.268
		c0-0.635,0.519-1.154,1.154-1.154h5.271c0.635,0,1.154,0.519,1.154,1.154V420.275z"/>
</g>
<g style="opacity:0.4;">
	<path style="fill:#754559;" d="M433.672,420.275c0,0.635-0.519,1.154-1.154,1.154h-5.271c-0.635,0-1.154-0.519-1.154-1.154v-1.268
		c0-0.635,0.519-1.154,1.154-1.154h5.271c0.635,0,1.154,0.519,1.154,1.154V420.275z"/>
</g>
<g style="opacity:0.7;">
	<path style="fill:#3B2D3C;" d="M419.168,418.756c0,0.635-0.519,1.154-1.154,1.154l-4.116,0c-0.635,0-1.154-0.519-1.154-1.154
		v-1.268c0-0.634,0.519-1.154,1.154-1.154h4.116c0.635,0,1.154,0.519,1.154,1.154V418.756z"/>
</g>
<g style="opacity:0.7;">
	<path style="fill:#3B2D3C;" d="M418.013,418.756c0,0.635-0.519,1.154-1.154,1.154l-4.116,0c-0.635,0-1.154-0.519-1.154-1.154
		v-1.268c0-0.634,0.519-1.154,1.154-1.154h4.116c0.635,0,1.154,0.519,1.154,1.154V418.756z"/>
</g>
<path style="fill:#DEDEE2;" d="M433.517,418.756c0,0.635-0.519,1.154-1.154,1.154l-4.116,0c-0.634,0-1.154-0.519-1.154-1.154v-1.268
	c0-0.634,0.519-1.154,1.154-1.154h4.116c0.635,0,1.154,0.519,1.154,1.154V418.756z"/>
<path style="fill:#FFFFFF;" d="M435.574,418.756c0,0.635-0.519,1.154-1.154,1.154l-4.116,0c-0.635,0-1.154-0.519-1.154-1.154v-1.268
	c0-0.634,0.519-1.154,1.154-1.154h4.116c0.635,0,1.154,0.519,1.154,1.154V418.756z"/>
<path style="fill:#DEDEE2;" d="M418.751,418.756c0,0.635-0.519,1.154-1.154,1.154l-4.116,0c-0.635,0-1.154-0.519-1.154-1.154v-1.268
	c0-0.634,0.519-1.154,1.154-1.154h4.116c0.634,0,1.154,0.519,1.154,1.154V418.756z"/>
<path style="fill:#FFFFFF;" d="M420.808,418.756c0,0.635-0.519,1.154-1.154,1.154l-4.116,0c-0.635,0-1.154-0.519-1.154-1.154v-1.268
	c0-0.634,0.519-1.154,1.154-1.154h4.116c0.635,0,1.154,0.519,1.154,1.154V418.756z"/>
<polygon style="opacity:0.5;fill:#FFFFFF;" points="411.174,398.4 404.475,403.142 402.862,388.311 409.543,383.507 "/>
<g>
	<g>
		<path style="fill:#E87E54;" d="M146.939,420.636c0.267,2.278,2.362,4.141,4.655,4.141h43.251c2.293,0,3.951-1.864,3.684-4.141
			l-7.475-63.744c-0.267-2.278-2.362-4.141-4.655-4.141h-43.251c-2.293,0-3.951,1.864-3.684,4.141L146.939,420.636z"/>
		<g>
			<path style="fill:#B26848;" d="M143.815,422.029c-0.903,0-1.82-0.816-1.926-1.713l-7.476-63.744
				c-0.037-0.316,0.034-0.585,0.206-0.778c0.171-0.193,0.43-0.295,0.749-0.295h43.251c0.903,0,1.82,0.816,1.926,1.713l7.475,63.744
				c0.037,0.316-0.034,0.585-0.206,0.778c-0.171,0.193-0.43,0.295-0.748,0.295H143.815z"/>
			<g>
				<path style="fill:#9B543B;" d="M177.899,358.247l7.157,61.033h-40.521l-7.157-61.033H177.899L177.899,358.247z M178.619,352.751
					h-43.251c-2.293,0-3.951,1.863-3.684,4.141l7.475,63.744c0.267,2.278,2.362,4.141,4.655,4.141h43.251
					c2.293,0,3.951-1.863,3.684-4.141l-7.475-63.744C183.007,354.614,180.913,352.751,178.619,352.751L178.619,352.751z"/>
			</g>
		</g>
	</g>
	<g style="opacity:0.5;">
		<path style="fill:#493F47;" d="M139.975,421.68c-0.626,1.703,0.346,3.096,2.16,3.095l18.324-0.001
			c1.814,0,3.319-1.484,3.345-3.298l0.514-36.173c0.026-1.814-1.437-3.298-3.251-3.297l-3.215,0c-1.814,0-3.81,1.393-4.436,3.096
			L139.975,421.68z"/>
	</g>
	<path style="fill:#493F47;" d="M137.868,421.646c-0.569,1.722,0.449,3.132,2.263,3.132l11.143,0.001
		c1.814,0,3.663-1.438,4.108-3.197l9.22-36.376c0.446-1.758-0.674-3.197-2.488-3.197l-7.845,0c-1.814,0-3.764,1.409-4.333,3.131
		L137.868,421.646z"/>
	<path style="fill:#594D57;" d="M134.963,421.723c-0.685,1.68,0.239,3.054,2.053,3.054l11.143,0.001
		c1.814,0,3.663-1.439,4.108-3.197l9.22-36.376c0.446-1.758-0.674-3.197-2.488-3.197l-4.547,0c-1.814,0-3.858,1.374-4.543,3.054
		L134.963,421.723z"/>
</g>
<g>
	<g>
		<g>
			<g>
				
					<path style="fill:none;stroke:#29869B;stroke-width:6.2774;stroke-linecap:round;stroke-linejoin:round;stroke-miterlimit:10;" d="
					M630.18,385.681c-8.469,0-13.335,1.983-13.335,10.452c0,8.471,4.866,15.336,13.335,15.336L630.18,385.681z"/>
				<path style="fill:#00B2BC;" d="M627.297,421.488c0,1.381,1.13,2.511,2.511,2.511h33.759c1.381,0,2.511-1.13,2.511-2.511
					l0-43.498c0-1.381-1.13-2.511-2.511-2.511h-33.759c-1.381,0-2.511,1.13-2.511,2.511L627.297,421.488z"/>
				<g style="opacity:0.4;">
					<path style="fill:#309DBD;" d="M649.763,411.443c0,1.381,1.13,2.511,2.511,2.511h11.161c1.381,0,2.511-1.13,2.511-2.511V381.88
						c0-1.381,0.03-2.511,0.066-2.511c0.036,0,0.066-0.875,0.066-1.945c0-1.07-1.13-1.945-2.511-1.945h-33.759
						c-1.381,0-2.511,0.875-2.511,1.945c0,1.07,1.13,1.945,2.511,1.945h17.443c1.381,0,2.511,1.13,2.511,2.511L649.763,411.443z"/>
				</g>
			</g>
		</g>
	</g>
	<g>
		<path style="fill:#FFFFFF;" d="M661.908,397.646c-0.693,0-1.255-0.562-1.255-1.255v-20.912h-1.884
			c-0.693,0-1.255-0.562-1.255-1.255c0-0.693,0.562-1.255,1.255-1.255h3.139c0.693,0,1.255,0.562,1.255,1.255v22.168
			C663.163,397.084,662.601,397.646,661.908,397.646z"/>
	</g>
	<path style="fill:#0996A8;" d="M666.599,406.832c0,1.381-1.13,2.511-2.511,2.511h-9.03c-1.381,0-2.511-1.13-2.511-2.511v-8.349
		c0-1.381,1.13-2.511,2.511-2.511h9.03c1.381,0,2.511,1.13,2.511,2.511V406.832z"/>
	<path style="fill:#FFD522;" d="M668.273,404.321c0,1.381-1.13,2.511-2.511,2.511h-7.775c-1.381,0-2.511-1.13-2.511-2.511v-7.094
		c0-1.381,1.13-2.511,2.511-2.511h7.775c1.381,0,2.511,1.13,2.511,2.511V404.321z"/>
</g>
<circle style="fill:#81889B;" cx="337.642" cy="369.201" r="10.055"/>
<g>
	<path style="fill:none;stroke:#3C5929;stroke-width:9.3939;stroke-linecap:round;stroke-linejoin:round;stroke-miterlimit:10;" d="
		M592.31,493.667v38.037c0,10.803,8.839,19.642,19.642,19.642h34.188c10.803,0,18.38-8.748,16.838-19.441l-4.23-29.33
		c-1.542-10.692-5.306-19.441-8.364-19.441c-3.058,0-5.56,0-5.56,0"/>
	<path style="fill:none;stroke:#CCDDD8;stroke-width:9.3939;stroke-linecap:round;stroke-linejoin:round;stroke-miterlimit:10;" d="
		M669.795,530.272c1.55,10.025-5.482,18.228-15.626,18.228h-37.437c-10.144,0-18.444-7.384-18.444-16.409v-8.605"/>
	<path style="fill:none;stroke:#E1EFEA;stroke-width:9.3939;stroke-linecap:round;stroke-linejoin:round;stroke-miterlimit:10;" d="
		M669.795,530.272l-4.201-27.172c-0.213-1.38-0.469-2.725-0.758-4.018"/>
	<path style="fill:none;stroke:#97B1C9;stroke-width:9.3939;stroke-linecap:round;stroke-linejoin:round;stroke-miterlimit:10;" d="
		M664.836,499.081c-1.816-8.109-4.983-14.209-7.62-14.209c-3.058,0-5.56,0-5.56,0"/>
	<path style="fill:none;stroke:#97B1C9;stroke-width:9.3939;stroke-linecap:round;stroke-linejoin:round;stroke-miterlimit:10;" d="
		M598.288,515.681c0,0,0-1.221,0,7.805"/>
	
		<path style="fill:none;stroke:#B8CC27;stroke-width:18.7879;stroke-linecap:round;stroke-linejoin:round;stroke-miterlimit:10;" d="
		M659.574,484.872h-42.842c-10.144,0-18.444,6.548-18.444,14.551s0,14.551,0,14.551"/>
	<g>
		<path style="fill:#87A143;" d="M591.701,523.367c-5.188,0-9.394-4.206-9.394-9.394V491.36c0-15.35,12.488-15.838,27.838-15.838
			h45.722c5.188,0,9.132-0.077,8.658,1.046c-1.425,3.374-4.765,5.742-8.658,5.742h-45.722c-4.99,0-9.05,4.06-9.05,9.05v22.613
			C601.095,519.161,596.89,523.367,591.701,523.367z"/>
	</g>
</g>
</svg>
