<?xml version="1.0" encoding="utf-8"?>
<!-- Generator: Adobe Illustrator 27.5.0, SVG Export Plug-In . SVG Version: 6.00 Build 0)  -->
<svg version="1.1" xmlns="http://www.w3.org/2000/svg" xmlns:xlink="http://www.w3.org/1999/xlink" x="0px" y="0px"
	 viewBox="0 0 500 500" style="enable-background:new 0 0 500 500;" xml:space="preserve">
<g id="Background_Complete">
	<g>
		<g>
			<g>
				<g>
					<g>
						<g>
							<g>
								<g>
									<g>
										<path style="fill:#F5F5F5;" d="M318.161,250.694c-47.238-0.442-89.985-0.841-120.971-1.131
											c-15.458-0.073-27.971-0.132-36.661-0.172c-4.305,0.01-7.655,0.017-9.968,0.023c-1.116,0.015-1.976,0.026-2.592,0.034
											c-0.584,0.014-0.883,0.03-0.883,0.047c0,0.017,0.299,0.036,0.883,0.056c0.616,0.015,1.476,0.034,2.592,0.06
											c2.313,0.028,5.663,0.069,9.967,0.122c8.689,0.046,21.203,0.112,36.66,0.193c30.987,0.019,73.737,0.046,120.977,0.075
											c47.216-0.005,89.974,0.056,120.927,0.278c15.477,0.108,28.001,0.251,36.658,0.414c4.328,0.081,7.689,0.166,9.967,0.252
											c2.278,0.086,3.475,0.173,3.475,0.256c-0.001,0.083-1.198,0.158-3.477,0.221c-2.279,0.063-5.64,0.115-9.969,0.153
											c-8.658,0.076-21.184,0.094-36.66,0.048C408.13,251.535,365.375,251.17,318.161,250.694z"/>
									</g>
								</g>
							</g>
						</g>
					</g>
				</g>
			</g>
		</g>
		<g>
			<g>
				<g>
					<g>
						<g>
							<g>
								<g>
									<g>
										<path style="fill:#F5F5F5;" d="M317.22,261.054c-46.593-7.574-88.757-14.429-119.319-19.397
											c-15.258-2.405-27.611-4.352-36.188-5.704c-4.254-0.639-7.565-1.137-9.85-1.48c-1.105-0.153-1.957-0.271-2.566-0.356
											c-0.58-0.074-0.878-0.103-0.881-0.085c-0.003,0.018,0.29,0.082,0.863,0.19c0.606,0.108,1.452,0.258,2.55,0.453
											c2.28,0.378,5.582,0.925,9.826,1.629c8.576,1.358,20.927,3.314,36.183,5.73c30.608,4.696,72.835,11.176,119.497,18.335
											c46.644,7.121,88.873,13.634,119.414,18.528c15.271,2.444,27.621,4.478,36.146,5.947c4.263,0.734,7.568,1.327,9.805,1.758
											c2.237,0.43,3.404,0.698,3.391,0.781c-0.014,0.083-1.209-0.023-3.47-0.303c-2.262-0.281-5.591-0.736-9.873-1.352
											c-8.564-1.231-20.942-3.104-36.223-5.487C405.96,275.483,363.783,268.66,317.22,261.054z"/>
									</g>
								</g>
							</g>
						</g>
					</g>
				</g>
			</g>
		</g>
		<g>
			<g>
				<g>
					<g>
						<g>
							<g>
								<g>
									<g>
										<path style="fill:#F5F5F5;" d="M314.62,271.143c-44.783-14.613-85.309-27.837-114.685-37.423
											c-14.678-4.71-26.561-8.523-34.812-11.171c-4.098-1.282-7.287-2.279-9.489-2.968c-1.067-0.32-1.888-0.567-2.477-0.743
											c-0.56-0.162-0.85-0.236-0.856-0.218c-0.006,0.018,0.272,0.126,0.821,0.321c0.582,0.199,1.392,0.477,2.445,0.838
											c2.19,0.723,5.362,1.769,9.439,3.114c8.25,2.654,20.129,6.476,34.803,11.197c29.466,9.321,70.116,22.181,115.037,36.391
											c44.909,14.168,85.557,27.062,114.923,36.57c14.685,4.751,26.551,8.651,34.73,11.408c4.09,1.378,7.258,2.47,9.397,3.238
											c2.139,0.768,3.249,1.212,3.221,1.292c-0.027,0.081-1.191-0.206-3.379-0.828c-2.188-0.623-5.402-1.581-9.531-2.844
											c-8.259-2.525-20.178-6.268-34.883-10.96C399.913,298.978,359.368,285.783,314.62,271.143z"/>
									</g>
								</g>
							</g>
						</g>
					</g>
				</g>
			</g>
		</g>
		<g>
			<g>
				<g>
					<g>
						<g>
							<g>
								<g>
									<g>
										<path style="fill:#F5F5F5;" d="M310.421,280.697c-41.861-21.277-79.744-40.531-107.202-54.487
											c-13.733-6.897-24.85-12.48-32.57-16.356c-3.839-1.893-6.827-3.367-8.889-4.383c-1.002-0.48-1.773-0.85-2.326-1.114
											c-0.527-0.246-0.801-0.363-0.81-0.347c-0.008,0.016,0.249,0.165,0.76,0.441c0.541,0.285,1.298,0.684,2.279,1.201
											c2.046,1.048,5.009,2.566,8.818,4.517c7.717,3.882,18.83,9.473,32.558,16.38c27.588,13.713,65.649,32.632,107.707,53.538
											c42.054,20.864,80.106,39.816,107.568,53.696c13.733,6.937,24.82,12.602,32.452,16.574
											c3.816,1.986,6.769,3.548,8.758,4.632c1.988,1.085,3.013,1.691,2.974,1.765c-0.04,0.074-1.141-0.387-3.201-1.338
											c-2.06-0.951-5.078-2.39-8.951-4.269c-7.746-3.759-18.91-9.279-32.672-16.162
											C390.149,321.223,352.244,301.995,310.421,280.697z"/>
									</g>
								</g>
							</g>
						</g>
					</g>
				</g>
			</g>
		</g>
		<g>
			<g>
				<g>
					<g>
						<g>
							<g>
								<g>
									<g>
										<path style="fill:#F5F5F5;" d="M304.731,289.497c-37.924-27.375-72.244-52.148-97.121-70.104
											c-12.454-8.898-22.537-16.102-29.538-21.104c-3.487-2.453-6.201-4.362-8.075-5.681c-0.912-0.626-1.614-1.108-2.117-1.454
											c-0.481-0.323-0.732-0.48-0.743-0.466c-0.011,0.015,0.219,0.201,0.679,0.551c0.49,0.364,1.172,0.872,2.059,1.532
											c1.853,1.346,4.535,3.295,7.983,5.801c6.998,5.007,17.075,12.217,29.523,21.124
											c25.044,17.736,59.594,42.204,97.773,69.242c38.181,26.996,72.718,51.496,97.61,69.377
											c12.447,8.938,22.488,16.218,29.387,21.3c3.45,2.541,6.115,4.533,7.905,5.906c1.79,1.373,2.704,2.128,2.653,2.196
											c-0.051,0.067-1.065-0.556-2.947-1.808c-1.881-1.252-4.631-3.132-8.154-5.576c-7.046-4.889-17.186-12.037-29.671-20.926
											C376.961,341.636,342.615,316.886,304.731,289.497z"/>
									</g>
								</g>
							</g>
						</g>
					</g>
				</g>
			</g>
		</g>
		<g>
			<g>
				<g>
					<g>
						<g>
							<g>
								<g>
									<g>
										<path style="fill:#F5F5F5;" d="M297.701,297.325c-33.082-32.774-63.02-62.433-84.721-83.931
											c-10.879-10.673-19.686-19.313-25.801-25.312c-3.052-2.951-5.427-5.247-7.067-6.832c-0.801-0.757-1.417-1.339-1.859-1.756
											c-0.423-0.391-0.647-0.585-0.66-0.573c-0.013,0.012,0.185,0.232,0.583,0.647c0.425,0.434,1.018,1.039,1.788,1.824
											c1.615,1.61,3.953,3.941,6.958,6.937c6.111,6.004,14.912,14.649,25.783,25.329c21.9,21.306,52.114,50.699,85.502,83.18
											c33.396,32.44,63.591,61.862,85.318,83.289c10.866,10.712,19.619,19.42,25.622,25.483
											c3.001,3.031,5.316,5.402,6.864,7.029c1.548,1.627,2.331,2.511,2.27,2.57c-0.061,0.059-0.963-0.71-2.621-2.231
											c-1.658-1.521-4.074-3.794-7.162-6.741c-6.178-5.895-15.05-14.489-25.961-25.156
											C360.709,359.748,330.741,330.107,297.701,297.325z"/>
									</g>
								</g>
							</g>
						</g>
					</g>
				</g>
			</g>
		</g>
		<g>
			<g>
				<g>
					<g>
						<g>
							<g>
								<g>
									<g>
										<path style="fill:#F5F5F5;" d="M289.505,303.995c-27.435-37.377-52.261-71.201-70.257-95.718
											c-9.039-12.187-16.355-22.053-21.437-28.905c-2.543-3.376-4.522-6.003-5.888-7.817c-0.67-0.868-1.186-1.537-1.556-2.016
											c-0.355-0.451-0.545-0.676-0.56-0.666c-0.015,0.01,0.145,0.257,0.472,0.727c0.35,0.492,0.839,1.18,1.474,2.072
											c1.337,1.834,3.274,4.49,5.763,7.904c5.076,6.855,12.386,16.726,21.416,28.919c18.224,24.357,43.366,57.96,71.15,95.092
											c27.799,37.092,52.918,70.721,70.952,95.172c9.019,12.224,16.272,22.149,21.231,29.047c2.48,3.449,4.386,6.14,5.655,7.981
											c1.269,1.841,1.9,2.833,1.83,2.882c-0.07,0.049-0.837-0.847-2.232-2.6c-1.395-1.753-3.417-4.363-5.997-7.742
											c-5.16-6.757-12.548-16.587-21.619-28.775C341.755,375.183,316.896,341.373,289.505,303.995z"/>
									</g>
								</g>
							</g>
						</g>
					</g>
				</g>
			</g>
		</g>
		<g>
			<g>
				<g>
					<g>
						<g>
							<g>
								<g>
									<g>
										<path style="fill:#F5F5F5;" d="M280.34,309.341c-21.083-41.086-40.162-78.267-53.991-105.217
											c-6.967-13.411-12.607-24.267-16.524-31.806c-1.968-3.721-3.501-6.616-4.559-8.615c-0.522-0.959-0.924-1.698-1.212-2.227
											c-0.279-0.499-0.43-0.75-0.447-0.742c-0.017,0.008,0.102,0.276,0.349,0.791c0.267,0.54,0.639,1.293,1.122,2.271
											c1.026,2.015,2.511,4.933,4.419,8.683c3.911,7.542,9.543,18.402,16.5,31.818c14.083,26.826,33.511,63.836,54.98,104.733
											c21.491,40.86,40.892,77.891,54.771,104.782c6.942,13.444,12.509,24.35,16.296,31.916
											c1.894,3.783,3.344,6.731,4.301,8.743c0.957,2.012,1.421,3.087,1.343,3.125c-0.078,0.038-0.692-0.964-1.788-2.907
											c-1.096-1.943-2.674-4.828-4.679-8.557c-4.01-7.457-9.726-18.29-16.725-31.706
											C320.493,387.595,301.38,350.422,280.34,309.341z"/>
									</g>
								</g>
							</g>
						</g>
					</g>
				</g>
			</g>
		</g>
		<g>
			<g>
				<g>
					<g>
						<g>
							<g>
								<g>
									<g>
										<path style="fill:#F5F5F5;" d="M270.424,313.224c-14.168-43.799-26.99-83.434-36.284-112.164
											c-4.71-14.309-8.522-25.893-11.169-33.937c-1.342-3.975-2.387-7.069-3.108-9.205c-0.361-1.027-0.639-1.818-0.837-2.385
											c-0.195-0.535-0.303-0.807-0.322-0.801c-0.018,0.006,0.056,0.288,0.216,0.834c0.176,0.574,0.422,1.375,0.74,2.415
											c0.687,2.146,1.681,5.256,2.958,9.251c2.641,8.046,6.444,19.632,11.143,33.945c9.565,28.645,22.761,68.165,37.343,111.835
											c14.61,43.637,27.776,83.173,37.128,111.851c4.679,14.338,8.411,25.959,10.926,34.01c1.258,4.025,2.212,7.158,2.831,9.291
											c0.619,2.133,0.902,3.266,0.819,3.292c-0.082,0.026-0.527-1.057-1.296-3.144c-0.768-2.087-1.859-5.177-3.236-9.166
											c-2.753-7.978-6.645-19.549-11.385-33.868C297.407,396.643,284.55,357.011,270.424,313.224z"/>
									</g>
								</g>
							</g>
						</g>
					</g>
				</g>
			</g>
		</g>
		<g>
			<g>
				<g>
					<g>
						<g>
							<g>
								<g>
									<g>
										<path style="fill:#F5F5F5;" d="M260,315.541c-6.902-45.42-13.148-86.522-17.676-116.315
											c-2.334-14.851-4.223-26.874-5.535-35.222c-0.682-4.131-1.212-7.346-1.578-9.565c-0.19-1.069-0.336-1.893-0.44-2.483
											c-0.105-0.559-0.169-0.843-0.187-0.841c-0.018,0.003,0.009,0.293,0.079,0.857c0.081,0.594,0.194,1.422,0.341,2.498
											c0.331,2.225,0.809,5.447,1.425,9.588c1.306,8.349,3.186,20.373,5.509,35.226c4.808,29.752,11.44,70.797,18.77,116.153
											c7.362,45.328,13.962,86.385,18.555,116.136c2.3,14.875,4.103,26.922,5.285,35.258c0.591,4.168,1.026,7.408,1.292,9.609
											c0.266,2.201,0.363,3.363,0.277,3.376c-0.085,0.013-0.349-1.125-0.77-3.303c-0.421-2.178-0.997-5.397-1.71-9.547
											c-1.427-8.299-3.396-20.322-5.759-35.187C273.144,402.047,266.862,360.943,260,315.541z"/>
									</g>
								</g>
							</g>
						</g>
					</g>
				</g>
			</g>
		</g>
		<g>
			<g>
				<g>
					<g>
						<g>
							<g>
								<g>
									<g>
										<path style="fill:#F5F5F5;" d="M249.33,316.245c0.425-45.91,0.81-87.457,1.089-117.572
											c0.065-15.023,0.118-27.185,0.155-35.63c-0.013-4.184-0.023-7.439-0.029-9.687c-0.016-1.085-0.028-1.921-0.037-2.52
											c-0.014-0.568-0.03-0.859-0.049-0.859c-0.018,0-0.037,0.29-0.057,0.858c-0.014,0.599-0.034,1.434-0.06,2.519
											c-0.028,2.248-0.067,5.503-0.119,9.687c-0.042,8.445-0.102,20.607-0.176,35.63c-0.001,30.116-0.002,71.664-0.003,117.576
											c0.034,45.889-0.002,87.445-0.212,117.528c-0.102,15.042-0.241,27.215-0.403,35.627c-0.081,4.206-0.166,7.473-0.253,9.687
											c-0.087,2.215-0.176,3.378-0.261,3.377c-0.085,0-0.163-1.164-0.229-3.379c-0.066-2.215-0.122-5.482-0.163-9.689
											c-0.083-8.414-0.11-20.588-0.072-35.63C248.52,403.687,248.869,362.132,249.33,316.245z"/>
									</g>
								</g>
							</g>
						</g>
					</g>
				</g>
			</g>
		</g>
		<g>
			<g>
				<g>
					<g>
						<g>
							<g>
								<g>
									<g>
										<path style="fill:#F5F5F5;" d="M238.67,315.337c7.764-45.288,14.79-86.271,19.883-115.978
											c2.465-14.831,4.461-26.837,5.846-35.174c0.655-4.135,1.164-7.353,1.517-9.575c0.157-1.074,0.277-1.902,0.365-2.495
											c0.076-0.563,0.105-0.853,0.087-0.856c-0.019-0.003-0.085,0.281-0.196,0.839c-0.11,0.589-0.264,1.411-0.464,2.479
											c-0.387,2.216-0.949,5.426-1.67,9.55c-1.392,8.336-3.397,20.341-5.873,35.17c-4.813,29.751-11.453,70.794-18.79,116.15
											c-7.297,45.338-13.972,86.384-18.989,116.07c-2.505,14.843-4.59,26.848-6.097,35.133
											c-0.753,4.143-1.361,7.357-1.802,9.531c-0.441,2.174-0.716,3.309-0.801,3.296c-0.086-0.013,0.022-1.175,0.309-3.373
											c0.287-2.199,0.754-5.434,1.384-9.597c1.261-8.324,3.18-20.355,5.622-35.208
											C223.88,401.593,230.873,360.597,238.67,315.337z"/>
									</g>
								</g>
							</g>
						</g>
					</g>
				</g>
			</g>
		</g>
		<g>
			<g>
				<g>
					<g>
						<g>
							<g>
								<g>
									<g>
										<path style="fill:#F5F5F5;" d="M228.287,312.817c15.008-43.534,28.589-82.929,38.433-111.485
											c4.837-14.268,8.753-25.82,11.473-33.841c1.316-3.983,2.34-7.083,3.048-9.223c0.329-1.037,0.582-1.836,0.763-2.408
											c0.166-0.544,0.242-0.826,0.224-0.832c-0.018-0.006-0.13,0.265-0.329,0.798c-0.205,0.565-0.49,1.353-0.861,2.377
											c-0.742,2.13-1.817,5.213-3.198,9.176c-2.726,8.019-6.651,19.567-11.499,33.832
											c-9.572,28.643-22.778,68.159-37.371,111.826c-14.55,43.656-27.79,83.169-37.555,111.717
											c-4.879,14.275-8.884,25.81-11.716,33.762c-1.415,3.976-2.537,7.056-3.326,9.135c-0.789,2.079-1.245,3.158-1.328,3.131
											c-0.083-0.026,0.211-1.157,0.85-3.285c0.639-2.127,1.623-5.251,2.92-9.266c2.593-8.028,6.437-19.615,11.255-33.909
											C199.701,395.73,213.252,356.317,228.287,312.817z"/>
									</g>
								</g>
							</g>
						</g>
					</g>
				</g>
			</g>
		</g>
		<g>
			<g>
				<g>
					<g>
						<g>
							<g>
								<g>
									<g>
										<path style="fill:#F5F5F5;" d="M218.454,308.742c21.866-40.698,41.653-77.528,55.995-104.223
											c7.087-13.351,12.825-24.16,16.809-31.665c1.946-3.732,3.46-6.637,4.505-8.642c0.494-0.974,0.873-1.724,1.145-2.261
											c0.252-0.512,0.373-0.779,0.357-0.787c-0.017-0.008-0.17,0.242-0.454,0.738c-0.293,0.527-0.702,1.261-1.234,2.216
											c-1.077,1.989-2.637,4.87-4.642,8.573c-3.99,7.502-9.736,18.306-16.833,31.653
											c-14.092,26.821-33.535,63.824-55.019,104.714c-21.441,40.885-40.916,77.879-55.181,104.578
											c-7.13,13.351-12.951,24.13-17.033,31.551c-2.041,3.71-3.646,6.581-4.761,8.514c-1.114,1.933-1.738,2.93-1.814,2.891
											c-0.077-0.038,0.398-1.109,1.375-3.112c0.977-2.003,2.456-4.937,4.387-8.702c3.862-7.53,9.535-18.384,16.608-31.764
											C176.806,386.255,196.567,349.403,218.454,308.742z"/>
									</g>
								</g>
							</g>
						</g>
					</g>
				</g>
			</g>
		</g>
		<g>
			<g>
				<g>
					<g>
						<g>
							<g>
								<g>
									<g>
										<path style="fill:#F5F5F5;" d="M209.397,303.217c28.143-36.875,53.611-70.246,72.071-94.434
											c9.148-12.11,16.553-21.914,21.696-28.721c2.522-3.391,4.484-6.029,5.84-7.851c0.644-0.887,1.139-1.57,1.495-2.059
											c0.331-0.468,0.494-0.712,0.479-0.723c-0.015-0.011-0.207,0.213-0.567,0.66c-0.375,0.476-0.897,1.139-1.575,2.001
											c-1.384,1.801-3.388,4.41-5.964,7.762c-5.147,6.804-12.56,16.603-21.717,28.707
											c-18.233,24.351-43.387,57.945-71.183,95.068c-27.753,37.125-52.939,70.706-71.323,94.909
											c-9.189,12.104-16.673,21.866-21.898,28.575c-2.612,3.355-4.66,5.946-6.072,7.686c-1.412,1.74-2.189,2.629-2.258,2.58
											c-0.07-0.049,0.571-1.035,1.858-2.865c1.286-1.829,3.219-4.503,5.732-7.928c5.026-6.852,12.375-16.71,21.513-28.85
											C155.794,373.45,181.239,340.053,209.397,303.217z"/>
									</g>
								</g>
							</g>
						</g>
					</g>
				</g>
			</g>
		</g>
		<g>
			<g>
				<g>
					<g>
						<g>
							<g>
								<g>
									<g>
										<path style="fill:#F5F5F5;" d="M201.338,296.39c33.701-32.173,64.199-61.288,86.306-82.392
											c10.975-10.579,19.859-19.144,26.028-25.091c3.034-2.968,5.395-5.278,7.025-6.873c0.778-0.779,1.376-1.378,1.806-1.808
											c0.403-0.412,0.603-0.629,0.589-0.642c-0.013-0.013-0.238,0.179-0.665,0.567c-0.446,0.413-1.068,0.99-1.876,1.739
											c-1.655,1.57-4.052,3.844-7.133,6.767c-6.174,5.943-15.064,14.502-26.046,25.075
											c-21.908,21.298-52.133,50.681-85.532,83.15c-33.357,32.478-63.612,61.842-85.644,82.972
											c-11.014,10.567-19.969,19.08-26.205,24.917c-3.117,2.919-5.555,5.169-7.228,6.675c-1.673,1.506-2.582,2.267-2.643,2.207
											c-0.061-0.06,0.73-0.936,2.295-2.549c1.564-1.613,3.901-3.962,6.932-6.966c6.061-6.008,14.898-14.636,25.868-25.247
											C137.149,357.666,167.628,328.522,201.338,296.39z"/>
									</g>
								</g>
							</g>
						</g>
					</g>
				</g>
			</g>
		</g>
		<g>
			<g>
				<g>
					<g>
						<g>
							<g>
								<g>
									<g>
										<path style="fill:#F5F5F5;" d="M194.47,288.429c38.44-26.687,73.227-50.836,98.442-68.342
											c12.534-8.792,22.681-15.91,29.727-20.852c3.472-2.473,6.174-4.398,8.039-5.727c0.893-0.652,1.581-1.153,2.073-1.513
											c0.463-0.346,0.695-0.53,0.684-0.545c-0.011-0.015-0.264,0.141-0.748,0.459c-0.507,0.341-1.214,0.817-2.132,1.434
											c-1.887,1.301-4.618,3.185-8.129,5.606c-7.05,4.938-17.202,12.048-29.742,20.832
											c-25.05,17.727-59.609,42.184-97.798,69.21c-38.148,27.041-72.733,51.475-97.88,69.017
											c-12.571,8.773-22.78,15.829-29.873,20.652c-3.547,2.412-6.315,4.267-8.208,5.501c-1.894,1.234-2.914,1.849-2.964,1.781
											c-0.05-0.068,0.871-0.815,2.674-2.171c1.803-1.357,4.487-3.324,7.962-5.833c6.949-5.019,17.059-12.206,29.593-21.03
											C121.255,339.255,156.028,315.073,194.47,288.429z"/>
									</g>
								</g>
							</g>
						</g>
					</g>
				</g>
			</g>
		</g>
		<g>
			<g>
				<g>
					<g>
						<g>
							<g>
								<g>
									<g>
										<path style="fill:#F5F5F5;" d="M188.963,279.525c42.261-20.516,80.505-39.082,108.227-52.54
											c13.794-6.78,24.961-12.268,32.716-16.079c3.827-1.916,6.805-3.407,8.861-4.436c0.987-0.508,1.747-0.9,2.291-1.18
											c0.514-0.271,0.772-0.419,0.763-0.435c-0.008-0.016-0.284,0.099-0.813,0.339c-0.555,0.26-1.33,0.622-2.336,1.092
											c-2.072,0.998-5.074,2.443-8.931,4.301c-7.757,3.805-18.928,9.286-32.728,16.055
											c-27.593,13.703-65.661,32.609-107.727,53.5c-42.029,20.913-80.118,39.792-107.777,53.297
											c-13.828,6.755-25.046,12.172-32.829,15.858c-3.891,1.843-6.924,3.254-8.993,4.185c-2.069,0.931-3.176,1.382-3.215,1.307
											c-0.039-0.075,0.991-0.673,2.99-1.739c1.999-1.067,4.967-2.602,8.802-4.552c7.67-3.902,18.812-9.465,32.612-16.275
											C108.471,318.598,146.707,299.999,188.963,279.525z"/>
									</g>
								</g>
							</g>
						</g>
					</g>
				</g>
			</g>
		</g>
		<g>
			<g>
				<g>
					<g>
						<g>
							<g>
								<g>
									<g>
										<path style="fill:#F5F5F5;" d="M184.962,269.89c45.056-13.798,85.83-26.284,115.384-35.335
											c14.72-4.586,26.636-8.299,34.911-10.877c4.089-1.307,7.272-2.324,9.469-3.026c1.056-0.351,1.87-0.622,2.453-0.815
											c0.55-0.19,0.83-0.296,0.824-0.313c-0.006-0.018-0.296,0.054-0.858,0.21c-0.59,0.171-1.414,0.41-2.484,0.721
											c-2.208,0.669-5.407,1.637-9.516,2.881c-8.277,2.572-20.196,6.275-34.92,10.851
											c-29.468,9.314-70.121,22.164-115.046,36.364c-44.889,14.227-85.561,27.048-115.062,36.156
											c-14.749,4.557-26.704,8.191-34.987,10.641c-4.141,1.225-7.364,2.155-9.558,2.758c-2.194,0.603-3.36,0.879-3.386,0.799
											c-0.027-0.081,1.087-0.514,3.234-1.261c2.146-0.748,5.325-1.81,9.429-3.151c8.207-2.681,20.11-6.47,34.84-11.086
											C99.147,296.167,139.917,283.646,184.962,269.89z"/>
									</g>
								</g>
							</g>
						</g>
					</g>
				</g>
			</g>
		</g>
		<g>
			<g>
				<g>
					<g>
						<g>
							<g>
								<g>
									<g>
										<path style="fill:#F5F5F5;" d="M182.571,259.76c46.729-6.737,89.016-12.833,119.668-17.252
											c15.279-2.277,27.647-4.121,36.237-5.402c4.25-0.665,7.557-1.183,9.841-1.54c1.1-0.185,1.947-0.327,2.555-0.429
											c0.575-0.103,0.868-0.165,0.865-0.182c-0.003-0.018-0.301,0.008-0.882,0.077c-0.611,0.079-1.463,0.189-2.57,0.333
											c-2.289,0.323-5.604,0.79-9.864,1.391c-8.59,1.274-20.961,3.109-36.242,5.376c-30.609,4.691-72.836,11.163-119.5,18.315
											c-46.634,7.184-88.875,13.624-119.483,18.107c-15.304,2.245-27.698,4.005-36.274,5.159
											c-4.288,0.577-7.621,1.002-9.886,1.262c-2.265,0.26-3.46,0.355-3.474,0.272c-0.013-0.083,1.158-0.34,3.398-0.75
											c2.241-0.41,5.552-0.973,9.822-1.668c8.538-1.392,20.908-3.314,36.201-5.62C93.571,272.589,135.86,266.458,182.571,259.76
											z"/>
									</g>
								</g>
							</g>
						</g>
					</g>
				</g>
			</g>
		</g>
		<g>
			<g>
				<g>
					<g>
						<g>
							<g>
								<g>
									<g>
										<path style="fill:#F5F5F5;" d="M181.839,249.391c47.239,0.385,89.986,0.733,120.973,0.985
											c15.458,0.054,27.971,0.098,36.661,0.128c4.305-0.015,7.654-0.027,9.967-0.035c1.116-0.016,1.976-0.029,2.592-0.038
											c0.584-0.014,0.883-0.03,0.883-0.048c0-0.017-0.299-0.036-0.883-0.054c-0.616-0.014-1.476-0.033-2.592-0.057
											c-2.313-0.026-5.663-0.063-9.967-0.11c-8.69-0.035-21.203-0.086-36.661-0.149c-30.987,0.018-73.736,0.043-120.976,0.071
											c-47.216,0.062-89.974,0.053-120.927-0.132c-15.477-0.09-28.002-0.218-36.658-0.369c-4.328-0.076-7.689-0.157-9.967-0.24
											c-2.279-0.083-3.475-0.169-3.475-0.251c0-0.083,1.197-0.159,3.476-0.225c2.279-0.066,5.641-0.122,9.969-0.165
											c8.657-0.086,21.184-0.12,36.66-0.092C91.869,248.658,134.625,248.972,181.839,249.391z"/>
									</g>
								</g>
							</g>
						</g>
					</g>
				</g>
			</g>
		</g>
		<g>
			<g>
				<g>
					<g>
						<g>
							<g>
								<g>
									<g>
										<path style="fill:#F5F5F5;" d="M182.767,239.03c46.602,7.517,88.775,14.319,119.344,19.25
											c15.261,2.386,27.616,4.318,36.195,5.66c4.255,0.634,7.566,1.127,9.853,1.468c1.106,0.152,1.957,0.269,2.567,0.353
											c0.579,0.074,0.878,0.102,0.88,0.084c0.003-0.018-0.289-0.082-0.863-0.189c-0.607-0.107-1.453-0.256-2.551-0.45
											c-2.281-0.375-5.583-0.919-9.828-1.617c-8.578-1.348-20.932-3.288-36.191-5.686
											c-30.614-4.659-72.849-11.086-119.521-18.188C136,232.652,93.762,226.191,63.215,221.334
											c-15.275-2.425-27.627-4.444-36.154-5.903c-4.263-0.729-7.57-1.318-9.807-1.745c-2.238-0.427-3.405-0.694-3.392-0.777
											c0.014-0.083,1.209,0.021,3.471,0.299c2.262,0.278,5.592,0.729,9.875,1.339c8.566,1.22,20.945,3.078,36.23,5.442
											C94.008,224.711,136.194,231.482,182.767,239.03z"/>
									</g>
								</g>
							</g>
						</g>
					</g>
				</g>
			</g>
		</g>
		<g>
			<g>
				<g>
					<g>
						<g>
							<g>
								<g>
									<g>
										<path style="fill:#F5F5F5;" d="M185.354,228.938c44.802,14.558,85.346,27.732,114.734,37.281
											c14.684,4.692,26.572,8.49,34.827,11.128c4.099,1.277,7.289,2.27,9.492,2.956c1.067,0.319,1.889,0.564,2.478,0.741
											c0.56,0.161,0.85,0.234,0.856,0.217c0.006-0.018-0.272-0.126-0.822-0.32c-0.582-0.199-1.393-0.475-2.446-0.835
											c-2.191-0.72-5.365-1.763-9.443-3.102c-8.253-2.644-20.138-6.451-34.818-11.154
											c-29.478-9.285-70.145-22.094-115.084-36.248c-44.928-14.113-85.592-26.956-114.972-36.428
											c-14.69-4.733-26.562-8.618-34.745-11.365c-4.092-1.373-7.262-2.461-9.401-3.227c-2.14-0.765-3.251-1.208-3.223-1.289
											c0.027-0.081,1.191,0.204,3.38,0.824c2.189,0.62,5.404,1.574,9.535,2.832c8.262,2.515,20.186,6.243,34.897,10.917
											C100.024,201.208,140.586,214.353,185.354,228.938z"/>
									</g>
								</g>
							</g>
						</g>
					</g>
				</g>
			</g>
		</g>
		<g>
			<g>
				<g>
					<g>
						<g>
							<g>
								<g>
									<g>
										<path style="fill:#F5F5F5;" d="M189.54,219.378c41.889,21.225,79.797,40.433,107.273,54.355
											c13.742,6.88,24.866,12.449,32.591,16.316c3.842,1.889,6.831,3.358,8.895,4.372c1.003,0.479,1.774,0.847,2.327,1.111
											c0.527,0.245,0.801,0.362,0.81,0.346c0.009-0.016-0.249-0.165-0.76-0.44c-0.542-0.284-1.298-0.682-2.281-1.198
											c-2.047-1.045-5.013-2.56-8.824-4.506c-7.722-3.873-18.842-9.45-32.579-16.34
											c-27.606-13.679-65.691-32.551-107.777-53.406c-42.081-20.812-80.158-39.717-107.638-53.563
											c-13.741-6.92-24.836-12.571-32.474-16.533c-3.819-1.981-6.774-3.539-8.764-4.621c-1.99-1.082-3.015-1.688-2.976-1.762
											c0.039-0.074,1.141,0.386,3.203,1.334c2.061,0.948,5.081,2.383,8.956,4.258c7.75,3.749,18.922,9.256,32.693,16.121
											C109.759,178.951,147.689,198.132,189.54,219.378z"/>
									</g>
								</g>
							</g>
						</g>
					</g>
				</g>
			</g>
		</g>
		<g>
			<g>
				<g>
					<g>
						<g>
							<g>
								<g>
									<g>
										<path style="fill:#F5F5F5;" d="M195.219,210.572c37.96,27.328,72.312,52.059,97.211,69.985
											c12.466,8.883,22.558,16.074,29.566,21.068c3.491,2.449,6.206,4.354,8.081,5.67c0.913,0.625,1.616,1.106,2.12,1.451
											c0.481,0.322,0.733,0.48,0.744,0.466c0.011-0.015-0.219-0.201-0.68-0.55c-0.49-0.363-1.173-0.871-2.061-1.529
											c-1.854-1.344-4.539-3.29-7.991-5.791c-7.004-4.998-17.091-12.196-29.551-21.088
											c-25.066-17.705-59.649-42.131-97.863-69.123c-38.216-26.949-72.784-51.407-97.699-69.258
											c-12.459-8.923-22.509-16.191-29.415-21.265c-3.453-2.537-6.121-4.525-7.912-5.896c-1.792-1.371-2.707-2.125-2.656-2.193
											c0.051-0.068,1.066,0.555,2.949,1.804c1.884,1.249,4.635,3.126,8.162,5.566c7.053,4.88,17.201,12.016,29.698,20.89
											C122.921,158.52,157.3,183.229,195.219,210.572z"/>
									</g>
								</g>
							</g>
						</g>
					</g>
				</g>
			</g>
		</g>
		<g>
			<g>
				<g>
					<g>
						<g>
							<g>
								<g>
									<g>
										<path style="fill:#F5F5F5;" d="M202.239,202.735c33.125,32.734,63.101,62.356,84.829,83.828
											c10.893,10.659,19.711,19.289,25.834,25.281c3.056,2.947,5.434,5.24,7.076,6.823c0.802,0.755,1.419,1.337,1.861,1.754
											c0.424,0.391,0.648,0.585,0.661,0.572c0.013-0.013-0.185-0.231-0.584-0.646c-0.426-0.433-1.02-1.038-1.791-1.822
											c-1.617-1.607-3.958-3.936-6.967-6.928c-6.119-5.996-14.931-14.631-25.816-25.298
											c-21.928-21.279-52.18-50.636-85.609-83.076c-33.438-32.399-63.671-61.784-85.426-83.185
											c-10.88-10.698-19.644-19.396-25.654-25.452c-3.005-3.028-5.322-5.395-6.873-7.02c-1.55-1.625-2.334-2.508-2.272-2.567
											c0.061-0.059,0.964,0.709,2.624,2.228c1.66,1.519,4.079,3.789,7.171,6.732c6.186,5.887,15.069,14.47,25.994,25.125
											C139.15,140.389,169.157,169.993,202.239,202.735z"/>
									</g>
								</g>
							</g>
						</g>
					</g>
				</g>
			</g>
		</g>
		<g>
			<g>
				<g>
					<g>
						<g>
							<g>
								<g>
									<g>
										<path style="fill:#F5F5F5;" d="M210.426,196.055c27.483,37.343,52.353,71.136,70.381,95.632
											c9.054,12.176,16.384,22.033,21.474,28.878c2.547,3.373,4.529,5.998,5.898,7.81c0.671,0.867,1.188,1.535,1.558,2.014
											c0.356,0.45,0.546,0.676,0.561,0.665c0.015-0.01-0.145-0.257-0.473-0.727c-0.351-0.492-0.841-1.179-1.477-2.071
											c-1.34-1.833-3.28-4.487-5.773-7.897c-5.085-6.848-12.408-16.711-21.453-28.893
											c-18.256-24.335-43.441-57.907-71.273-95.005c-27.847-37.059-53.009-70.657-71.074-95.085
											c-9.035-12.212-16.301-22.129-21.269-29.021c-2.484-3.446-4.394-6.134-5.665-7.974c-1.271-1.84-1.904-2.83-1.834-2.879
											c0.07-0.049,0.839,0.846,2.236,2.597c1.397,1.752,3.423,4.359,6.007,7.734c5.168,6.75,12.57,16.572,21.657,28.748
											C158.084,124.93,182.986,158.71,210.426,196.055z"/>
									</g>
								</g>
							</g>
						</g>
					</g>
				</g>
			</g>
		</g>
		<g>
			<g>
				<g>
					<g>
						<g>
							<g>
								<g>
									<g>
										<path style="fill:#F5F5F5;" d="M219.584,190.698c21.137,41.06,40.264,78.218,54.129,105.151
											c6.985,13.402,12.639,24.252,16.565,31.786c1.974,3.719,3.509,6.612,4.57,8.609c0.524,0.959,0.927,1.697,1.216,2.226
											c0.279,0.499,0.431,0.75,0.448,0.742c0.017-0.008-0.102-0.276-0.35-0.79c-0.268-0.54-0.641-1.292-1.125-2.27
											c-1.028-2.014-2.518-4.93-4.431-8.678c-3.921-7.537-9.567-18.391-16.541-31.798
											c-14.118-26.809-33.594-63.795-55.116-104.665c-21.544-40.834-40.993-77.841-54.907-104.714
											c-6.959-13.435-12.54-24.334-16.338-31.896c-1.899-3.781-3.353-6.727-4.312-8.737c-0.959-2.011-1.425-3.086-1.347-3.124
											c0.077-0.038,0.693,0.963,1.792,2.905c1.099,1.942,2.68,4.825,4.69,8.552c4.02,7.453,9.75,18.278,16.767,31.685
											C179.33,112.493,198.491,149.642,219.584,190.698z"/>
									</g>
								</g>
							</g>
						</g>
					</g>
				</g>
			</g>
		</g>
		<g>
			<g>
				<g>
					<g>
						<g>
							<g>
								<g>
									<g>
										<path style="fill:#F5F5F5;" d="M229.495,186.803c14.226,43.781,27.1,83.4,36.431,112.119
											c4.728,14.303,8.556,25.882,11.214,33.923c1.347,3.974,2.396,7.066,3.12,9.201c0.362,1.026,0.641,1.817,0.841,2.383
											c0.195,0.535,0.305,0.806,0.323,0.801c0.018-0.006-0.056-0.288-0.217-0.834c-0.177-0.574-0.424-1.374-0.743-2.414
											c-0.689-2.146-1.688-5.254-2.971-9.247c-2.651-8.042-6.47-19.624-11.187-33.931
											c-9.602-28.634-22.85-68.137-37.489-111.789c-14.667-43.619-27.885-83.139-37.275-111.805
											c-4.698-14.332-8.445-25.949-10.971-33.997c-1.263-4.024-2.222-7.156-2.843-9.288c-0.622-2.132-0.907-3.265-0.824-3.291
											c0.082-0.026,0.529,1.056,1.3,3.142c0.771,2.086,1.866,5.175,3.248,9.162c2.763,7.974,6.671,19.541,11.429,33.854
											C202.403,103.416,215.312,143.033,229.495,186.803z"/>
									</g>
								</g>
							</g>
						</g>
					</g>
				</g>
			</g>
		</g>
		<g>
			<g>
				<g>
					<g>
						<g>
							<g>
								<g>
									<g>
										<path style="fill:#F5F5F5;" d="M239.916,184.473c6.961,45.411,13.261,86.506,17.827,116.293
											c2.353,14.848,4.259,26.868,5.581,35.215c0.687,4.13,1.221,7.344,1.59,9.563c0.191,1.069,0.338,1.893,0.444,2.483
											c0.106,0.559,0.17,0.843,0.188,0.84c0.018-0.003-0.009-0.293-0.08-0.857c-0.082-0.593-0.196-1.422-0.344-2.497
											c-0.333-2.225-0.816-5.446-1.437-9.586c-1.317-8.348-3.212-20.369-5.555-35.219
											c-4.846-29.746-11.532-70.783-18.921-116.13c-7.421-45.319-14.074-86.368-18.706-116.113
											c-2.319-14.872-4.139-26.917-5.331-35.251c-0.596-4.167-1.036-7.406-1.305-9.607c-0.269-2.201-0.368-3.363-0.282-3.376
											c0.086-0.013,0.351,1.125,0.774,3.302c0.423,2.178,1.004,5.396,1.723,9.544c1.438,8.298,3.423,20.318,5.805,35.18
											C226.66,97.982,232.994,139.079,239.916,184.473z"/>
									</g>
								</g>
							</g>
						</g>
					</g>
				</g>
			</g>
		</g>
		<g>
			<g>
				<g>
					<g>
						<g>
							<g>
								<g>
									<g>
										<path style="fill:#F5F5F5;" d="M250.584,183.755c-0.366,45.911-0.698,87.458-0.937,117.573
											c-0.046,15.023-0.083,27.185-0.109,35.63c0.018,4.184,0.032,7.439,0.042,9.687c0.018,1.085,0.031,1.921,0.04,2.519
											c0.015,0.568,0.032,0.858,0.05,0.858c0.018,0,0.037-0.291,0.056-0.858c0.014-0.599,0.032-1.434,0.057-2.519
											c0.025-2.248,0.061-5.503,0.107-9.687c0.031-8.445,0.075-20.607,0.13-35.63c-0.038-30.116-0.091-71.664-0.149-117.576
											c-0.093-45.889-0.111-87.445,0.06-117.528c0.083-15.042,0.206-27.215,0.357-35.628c0.075-4.206,0.156-7.473,0.241-9.687
											c0.084-2.215,0.171-3.378,0.257-3.377c0.085,0,0.164,1.164,0.233,3.379c0.069,2.215,0.129,5.482,0.176,9.689
											c0.094,8.414,0.136,20.588,0.118,35.63C251.281,96.313,250.985,137.867,250.584,183.755z"/>
									</g>
								</g>
							</g>
						</g>
					</g>
				</g>
			</g>
		</g>
		<g>
			<g>
				<g>
					<g>
						<g>
							<g>
								<g>
									<g>
										<path style="fill:#F5F5F5;" d="M261.245,184.65c-7.704,45.298-14.676,86.289-19.73,116.002
											c-2.445,14.834-4.425,26.843-5.8,35.182c-0.65,4.136-1.155,7.354-1.504,9.577c-0.155,1.074-0.276,1.902-0.361,2.495
											c-0.075,0.563-0.104,0.853-0.086,0.856c0.018,0.003,0.084-0.281,0.194-0.839c0.109-0.589,0.262-1.412,0.461-2.48
											c0.385-2.217,0.941-5.427,1.657-9.553c1.381-8.338,3.37-20.345,5.827-35.178c4.773-29.757,11.359-70.809,18.637-116.173
											c7.237-45.347,13.858-86.401,18.835-116.093c2.486-14.846,4.555-26.853,6.05-35.141c0.748-4.144,1.351-7.358,1.79-9.533
											c0.438-2.175,0.711-3.31,0.797-3.297c0.086,0.013-0.021,1.175-0.305,3.374c-0.284,2.199-0.746,5.435-1.372,9.598
											c-1.25,8.326-3.153,20.359-5.576,35.215C275.921,98.376,268.982,139.381,261.245,184.65z"/>
									</g>
								</g>
							</g>
						</g>
					</g>
				</g>
			</g>
		</g>
		<g>
			<g>
				<g>
					<g>
						<g>
							<g>
								<g>
									<g>
										<path style="fill:#F5F5F5;" d="M271.631,187.158c-14.95,43.552-28.478,82.965-38.285,111.534
											c-4.818,14.274-8.718,25.83-11.427,33.855c-1.311,3.985-2.331,7.086-3.035,9.228c-0.327,1.037-0.579,1.836-0.76,2.409
											c-0.165,0.545-0.241,0.827-0.223,0.832c0.018,0.006,0.129-0.265,0.329-0.799c0.204-0.566,0.488-1.354,0.858-2.378
											c0.739-2.131,1.81-5.215,3.186-9.18c2.715-8.023,6.625-19.576,11.454-33.846c9.534-28.656,22.687-68.188,37.222-111.873
											c14.492-43.674,27.68-83.204,37.407-111.764c4.86-14.281,8.85-25.821,11.671-33.776c1.41-3.978,2.528-7.059,3.314-9.139
											c0.786-2.08,1.241-3.16,1.324-3.133c0.083,0.026-0.209,1.158-0.846,3.286c-0.636,2.128-1.616,5.253-2.908,9.269
											c-2.582,8.031-6.411,19.623-11.21,33.923C300.107,104.208,286.608,143.638,271.631,187.158z"/>
									</g>
								</g>
							</g>
						</g>
					</g>
				</g>
			</g>
		</g>
		<g>
			<g>
				<g>
					<g>
						<g>
							<g>
								<g>
									<g>
										<path style="fill:#F5F5F5;" d="M281.47,191.22c-21.812,40.725-41.551,77.58-55.858,104.293
											c-7.07,13.36-12.794,24.176-16.768,31.685c-1.941,3.735-3.451,6.641-4.493,8.647c-0.492,0.975-0.871,1.725-1.142,2.262
											c-0.252,0.513-0.372,0.779-0.356,0.787c0.016,0.008,0.17-0.242,0.453-0.739c0.293-0.527,0.701-1.262,1.231-2.218
											c1.074-1.99,2.631-4.873,4.631-8.579c3.98-7.507,9.711-18.318,16.791-31.673c14.057-26.839,33.45-63.866,54.88-104.782
											c21.387-40.912,40.814-77.93,55.043-104.647c7.112-13.36,12.919-24.146,16.991-31.572
											c2.035-3.713,3.637-6.586,4.749-8.521c1.112-1.935,1.734-2.932,1.811-2.893c0.076,0.038-0.397,1.11-1.371,3.114
											c-0.974,2.004-2.449,4.94-4.375,8.707c-3.852,7.535-9.511,18.396-16.567,31.784
											C323.015,113.656,303.303,150.532,281.47,191.22z"/>
									</g>
								</g>
							</g>
						</g>
					</g>
				</g>
			</g>
		</g>
		<g>
			<g>
				<g>
					<g>
						<g>
							<g>
								<g>
									<g>
										<path style="fill:#F5F5F5;" d="M290.534,196.733c-28.094,36.91-53.518,70.312-71.947,94.524
											c-9.132,12.122-16.524,21.934-21.658,28.748c-2.518,3.394-4.477,6.035-5.829,7.858c-0.643,0.887-1.137,1.571-1.492,2.061
											c-0.331,0.468-0.493,0.713-0.478,0.723c0.015,0.011,0.207-0.213,0.566-0.661c0.374-0.476,0.895-1.141,1.573-2.003
											c1.382-1.803,3.382-4.414,5.953-7.77c5.139-6.811,12.538-16.618,21.679-28.733c18.201-24.373,43.311-57.999,71.059-95.156
											c27.704-37.16,52.847-70.771,71.198-94.998c9.173-12.115,16.644-21.887,21.861-28.602
											c2.609-3.358,4.653-5.952,6.062-7.694c1.41-1.742,2.185-2.632,2.255-2.582c0.069,0.049-0.57,1.036-1.854,2.867
											c-1.284,1.831-3.213,4.507-5.722,7.936c-5.017,6.858-12.352,16.725-21.474,28.877
											C344.045,126.435,318.644,159.863,290.534,196.733z"/>
									</g>
								</g>
							</g>
						</g>
					</g>
				</g>
			</g>
		</g>
		<g>
			<g>
				<g>
					<g>
						<g>
							<g>
								<g>
									<g>
										<path style="fill:#F5F5F5;" d="M298.602,203.551c-33.659,32.214-64.119,61.367-86.197,82.498
											c-10.961,10.593-19.834,19.169-25.996,25.124c-3.03,2.972-5.388,5.284-7.016,6.881c-0.777,0.78-1.375,1.38-1.804,1.81
											c-0.402,0.412-0.602,0.63-0.589,0.642c0.013,0.013,0.238-0.18,0.664-0.568c0.445-0.414,1.067-0.991,1.874-1.741
											c1.653-1.572,4.047-3.849,7.124-6.776c6.166-5.951,15.045-14.521,26.013-25.107c21.88-21.325,52.066-50.745,85.423-83.256
											c33.315-32.519,63.53-61.92,85.536-83.077c11.001-10.581,19.944-19.104,26.172-24.95c3.114-2.923,5.548-5.176,7.219-6.684
											c1.671-1.508,2.579-2.27,2.64-2.21c0.061,0.059-0.729,0.937-2.291,2.552c-1.562,1.615-3.896,3.966-6.922,6.974
											c-6.053,6.016-14.879,14.654-25.835,25.279C362.711,142.196,332.27,171.378,298.602,203.551z"/>
									</g>
								</g>
							</g>
						</g>
					</g>
				</g>
			</g>
		</g>
		<g>
			<g>
				<g>
					<g>
						<g>
							<g>
								<g>
									<g>
										<path style="fill:#F5F5F5;" d="M305.481,211.503c-38.405,26.734-73.16,50.927-98.352,68.464
											c-12.523,8.807-22.66,15.938-29.7,20.889c-3.469,2.478-6.168,4.406-8.032,5.737c-0.892,0.653-1.579,1.156-2.072,1.516
											c-0.463,0.346-0.694,0.531-0.684,0.546c0.011,0.014,0.264-0.141,0.747-0.46c0.506-0.342,1.212-0.818,2.13-1.437
											c1.885-1.303,4.614-3.19,8.122-5.616c7.043-4.946,17.186-12.07,29.715-20.869c25.027-17.758,59.554-42.258,97.707-69.33
											c38.112-27.088,72.666-51.564,97.789-69.138c12.56-8.789,22.759-15.857,29.846-20.69c3.543-2.416,6.309-4.274,8.201-5.511
											c1.892-1.237,2.911-1.852,2.962-1.784c0.051,0.068-0.87,0.816-2.671,2.175c-1.801,1.359-4.483,3.329-7.954,5.843
											c-6.942,5.028-17.043,12.227-29.566,21.067C378.629,160.587,343.888,184.812,305.481,211.503z"/>
									</g>
								</g>
							</g>
						</g>
					</g>
				</g>
			</g>
		</g>
		<g>
			<g>
				<g>
					<g>
						<g>
							<g>
								<g>
									<g>
										<path style="fill:#F5F5F5;" d="M310.999,220.401c-42.234,20.569-80.454,39.183-108.157,52.675
											c-13.785,6.797-24.945,12.299-32.695,16.12c-3.824,1.92-6.801,3.415-8.855,4.447c-0.986,0.509-1.745,0.902-2.289,1.183
											c-0.513,0.272-0.772,0.419-0.763,0.435c0.008,0.016,0.283-0.099,0.812-0.34c0.555-0.26,1.329-0.623,2.335-1.095
											c2.071-1,5.071-2.45,8.926-4.312c7.752-3.815,18.916-9.31,32.706-16.096c27.575-13.738,65.618-32.691,107.657-53.634
											c42-20.965,80.065-39.892,107.707-53.432c13.819-6.773,25.03-12.204,32.808-15.899c3.889-1.848,6.919-3.263,8.987-4.196
											c2.068-0.934,3.174-1.386,3.213-1.311c0.039,0.075-0.99,0.674-2.988,1.743c-1.997,1.069-4.963,2.608-8.796,4.563
											c-7.665,3.911-18.8,9.488-32.59,16.315C391.439,181.228,353.228,199.874,310.999,220.401z"/>
									</g>
								</g>
							</g>
						</g>
					</g>
				</g>
			</g>
		</g>
		<g>
			<g>
				<g>
					<g>
						<g>
							<g>
								<g>
									<g>
										<path style="fill:#F5F5F5;" d="M315.013,230.031c-45.038,13.854-85.795,26.392-115.338,35.479
											c-14.714,4.605-26.625,8.332-34.896,10.921c-4.087,1.312-7.268,2.333-9.465,3.038c-1.056,0.352-1.869,0.624-2.452,0.818
											c-0.55,0.19-0.829,0.297-0.823,0.314c0.006,0.017,0.296-0.054,0.858-0.211c0.59-0.172,1.414-0.412,2.483-0.724
											c2.208-0.671,5.404-1.643,9.513-2.893c8.274-2.582,20.188-6.301,34.905-10.895c29.456-9.351,70.092-22.252,114.997-36.507
											c44.871-14.283,85.526-27.155,115.014-36.299c14.744-4.575,26.694-8.224,34.973-10.684c4.14-1.23,7.361-2.164,9.555-2.769
											c2.193-0.606,3.358-0.883,3.385-0.803c0.026,0.08-1.087,0.515-3.232,1.265c-2.146,0.75-5.323,1.817-9.425,3.162
											c-8.203,2.691-20.102,6.496-34.826,11.13C400.793,203.647,360.04,216.218,315.013,230.031z"/>
									</g>
								</g>
							</g>
						</g>
					</g>
				</g>
			</g>
		</g>
		<g>
			<g>
				<g>
					<g>
						<g>
							<g>
								<g>
									<g>
										<path style="fill:#F5F5F5;" d="M317.417,240.157c-46.72,6.795-88.999,12.944-119.645,17.401
											c-15.276,2.297-27.643,4.156-36.23,5.447c-4.249,0.67-7.556,1.192-9.839,1.552c-1.1,0.186-1.947,0.33-2.554,0.433
											c-0.575,0.103-0.868,0.166-0.865,0.183c0.003,0.018,0.301-0.009,0.881-0.078c0.611-0.08,1.463-0.191,2.57-0.336
											c2.289-0.326,5.603-0.797,9.863-1.403c8.589-1.285,20.956-3.136,36.234-5.421c30.602-4.729,72.822-11.254,119.476-18.464
											c46.625-7.242,88.857-13.734,119.459-18.255c15.3-2.263,27.693-4.04,36.267-5.203c4.287-0.582,7.62-1.012,9.884-1.274
											c2.264-0.263,3.459-0.359,3.473-0.276c0.013,0.083-1.157,0.342-3.397,0.754c-2.24,0.413-5.551,0.98-9.819,1.681
											c-8.536,1.402-20.903,3.34-36.194,5.665C406.4,227.218,364.119,233.401,317.417,240.157z"/>
									</g>
								</g>
							</g>
						</g>
					</g>
				</g>
			</g>
		</g>
	</g>
	<polygon style="fill:#E0E0E0;" points="351.314,97.239 368.993,75.664 361.774,72.882 367.42,57.156 351.303,75.758 
		359.594,78.175 	"/>
	<polygon style="fill:#E0E0E0;" points="407.906,281.816 424.628,304.141 429.056,297.797 442.975,307.04 428.767,286.942 
		424.438,294.415 	"/>
	<polygon style="fill:#E0E0E0;" points="104.873,93.568 122.691,145.72 134.881,136.496 155.408,162.353 140.956,115.919 
		128.263,127.324 	"/>
	<polygon style="fill:#E0E0E0;" points="239.196,391.016 251.185,348.071 238.831,348.644 236.976,321.999 225.359,359.588 
		239.047,357.791 	"/>
	<polygon style="fill:#E0E0E0;" points="179.525,101.374 179.419,121.479 184.725,119.76 188.701,131.129 189.282,113.397 
		183.543,115.807 	"/>
	<polygon style="fill:#E0E0E0;" points="89.193,161.169 101.913,176.739 104.91,172.036 115.215,178.269 104.372,164.227 
		101.481,169.74 	"/>
	<polygon style="fill:#E0E0E0;" points="276.223,326.843 276.117,346.948 281.422,345.229 285.399,356.598 285.98,338.866 
		280.24,341.277 	"/>
</g>
<g id="Background_Simple" style="display:none;">
	<path style="display:inline;fill:#F5F5F5;" d="M217.566,365.727l0.268-2.02c2.257-17.027,13.451-31.608,29.436-37.452
		c2.055-0.751,4.164-1.354,6.313-1.796c15.47-3.181,32.469,2.112,43.581,13.569c6.535,6.738,11.444,15.644,19.943,19.539
		c11.061,5.069,23.752-0.191,34.658-5.389c10.906-5.199,23.621-10.429,34.659-5.312c6.913,3.205,11.647,10,14.35,17.17
		c7.157,18.982,1.512,41.241-11.307,56.701c-12.819,15.46-31.849,24.694-51.431,28.964c-27.432,5.983-57.524,2.552-81.389-12.673
		C232.782,421.802,216.249,394.045,217.566,365.727z"/>
	<path style="display:inline;fill:#F5F5F5;" d="M96.121,157.71l-0.967-1.172c-8.149-9.88-10.423-23.397-5.494-35.092
		c0.633-1.503,1.376-2.961,2.226-4.359c6.121-10.061,17.644-16.652,29.542-16.899c6.998-0.145,14.353,1.698,20.795-0.963
		c8.385-3.464,11.96-13.063,14.661-21.658c2.701-8.594,6.304-18.192,14.704-21.619c5.261-2.146,11.375-1.279,16.662,0.887
		c13.997,5.734,23.282,20.121,25.211,34.972c1.929,14.85-2.696,29.929-10.31,42.788c-10.667,18.014-27.824,32.699-48.257,37.994
		C134.461,177.885,110.911,172.812,96.121,157.71z"/>
	
		<ellipse transform="matrix(0.22 -0.9755 0.9755 0.22 36.4576 669.2352)" style="display:inline;fill:#F5F5F5;" cx="436.732" cy="311.819" rx="24.418" ry="24.418"/>
</g>
<g id="Megaphone">
	<g>
		<g>
			
				<ellipse transform="matrix(0.9613 -0.2756 0.2756 0.9613 -72.7417 36.5205)" style="fill:#455A64;" cx="93.596" cy="277.129" rx="34.006" ry="37.481"/>
			
				<ellipse transform="matrix(0.9436 -0.3311 0.3311 0.9436 -86.0125 49.335)" style="fill:#FF725E;" cx="101.798" cy="277.124" rx="30.503" ry="51.008"/>
			
				<ellipse transform="matrix(0.9436 -0.3311 0.3311 0.9436 -74.0758 71.9534)" style="fill:#FF725E;" cx="174.154" cy="253.398" rx="35.59" ry="55.858"/>
			<path style="fill:#FF725E;" d="M185.212,391.457c-12.554-25.892-8.631-67.215-8.631-67.215s-1.046-7.585,0-10.723
				c1.046-3.138,16.067-7.413,16.067-7.413L156.864,200.31L81.941,230.34l23.922,94.971c0,0,3.764,36.854,6.38,53.592
				c2.615,16.738,6.277,40.277,9.677,49.169c3.4,8.892,19.092,9.938,27.461,10.984c8.369,1.046,40.015-14.384,43.267-19.092
				C195.901,415.257,197.766,417.349,185.212,391.457z"/>
			
				<ellipse transform="matrix(0.9436 -0.3311 0.3311 0.9436 -74.0758 71.9534)" style="opacity:0.3;" cx="174.154" cy="253.398" rx="35.59" ry="55.858"/>
			<path style="fill:#E0E0E0;" d="M155.076,207.163c0,0,36.87-21.818,55.915-43.52c15.494-17.656,36.761-47.391,36.761-47.391
				l97.883,205.51c0,0-50.934-19.488-97.883-19.931c-44.787-0.422-61.621-0.131-61.621-0.131L155.076,207.163z"/>
			
				<ellipse transform="matrix(0.9436 -0.3311 0.3311 0.9436 -73.9529 72.1508)" style="fill:#E0E0E0;" cx="174.795" cy="253.137" rx="27.938" ry="50.278"/>
			<g style="opacity:0.3;">
				<path style="fill:#FFFFFF;" d="M152.38,271.874c34.595-20.863,71.892-37.644,113.43-32.494
					c-10.321-23.772-16.592-49.297-18.461-75.145c-26.267,35.926-60.102,68.775-103.23,79.756c0,0,1.726,10.887,3.468,15.862
					C149.329,264.829,152.38,271.874,152.38,271.874z"/>
			</g>
			<g>
				<path style="fill:none;" d="M161.344,411.868c-0.664,0.223-1.328,0.448-1.994,0.676
					C160.015,412.315,160.68,412.09,161.344,411.868z"/>
				<path style="fill:none;" d="M157.714,413.111c-0.669,0.235-1.339,0.474-2.008,0.714
					C156.375,413.584,157.045,413.345,157.714,413.111z"/>
				<path style="fill:none;" d="M154.098,414.406c-0.707,0.259-1.414,0.525-2.12,0.791
					C152.684,414.931,153.391,414.665,154.098,414.406z"/>
				<path style="fill:none;" d="M164.986,410.675c-0.673,0.216-1.346,0.432-2.021,0.654
					C163.639,411.107,164.313,410.891,164.986,410.675z"/>
				<path style="fill:none;" d="M173.504,408.08c-1.124,0.324-2.254,0.657-3.386,0.998
					C171.251,408.737,172.38,408.404,173.504,408.08z"/>
				<path style="fill:none;" d="M168.703,409.511c-0.716,0.219-1.431,0.438-2.149,0.663
					C167.271,409.949,167.987,409.73,168.703,409.511z"/>
				<path style="fill:none;" d="M142.009,419.201c-0.736,0.315-1.472,0.63-2.206,0.954
					C140.537,419.831,141.273,419.516,142.009,419.201z"/>
				<path style="fill:none;" d="M131.122,424.216c-0.657,0.326-1.311,0.657-1.964,0.99
					C129.812,424.873,130.465,424.542,131.122,424.216z"/>
				<path style="fill:none;" d="M150.487,415.759c-0.863,0.331-1.724,0.671-2.585,1.012
					C148.763,416.43,149.624,416.09,150.487,415.759z"/>
				<path style="fill:none;" d="M134.661,422.504c-0.656,0.31-1.31,0.622-1.962,0.939
					C133.352,423.126,134.006,422.814,134.661,422.504z"/>
				<path style="fill:none;" d="M127.627,425.992c-0.686,0.358-1.366,0.723-2.047,1.089
					C126.26,426.715,126.941,426.349,127.627,425.992z"/>
				<path style="fill:none;" d="M146.838,417.19c-1.154,0.464-2.307,0.939-3.457,1.422
					C144.532,418.129,145.684,417.654,146.838,417.19z"/>
				<path style="fill:none;" d="M138.271,420.841c-0.676,0.304-1.351,0.609-2.024,0.92
					C136.921,421.45,137.596,421.145,138.271,420.841z"/>
				<path style="opacity:0.2;fill:#F5F5F5;" d="M127.627,425.992c0.509-0.265,1.02-0.525,1.532-0.786
					c0.653-0.333,1.307-0.664,1.964-0.99c0.524-0.26,1.05-0.517,1.577-0.773c0.653-0.317,1.307-0.63,1.962-0.939
					c0.528-0.25,1.056-0.498,1.587-0.743c0.673-0.311,1.348-0.616,2.024-0.92c0.51-0.23,1.02-0.461,1.532-0.686
					c0.734-0.323,1.47-0.639,2.206-0.954c0.458-0.196,0.914-0.396,1.372-0.588c1.15-0.483,2.302-0.958,3.457-1.422
					c0.354-0.142,0.709-0.278,1.063-0.419c0.861-0.342,1.723-0.682,2.585-1.012c0.497-0.191,0.994-0.375,1.49-0.562
					c0.707-0.266,1.414-0.532,2.12-0.791c0.536-0.197,1.072-0.388,1.608-0.581c0.67-0.241,1.339-0.48,2.008-0.714
					c0.546-0.191,1.091-0.38,1.636-0.567c0.665-0.228,1.33-0.454,1.994-0.676c0.541-0.181,1.081-0.362,1.621-0.539
					c0.675-0.222,1.348-0.438,2.021-0.654c0.523-0.167,1.046-0.336,1.568-0.5c0.718-0.226,1.434-0.444,2.149-0.663
					c0.472-0.144,0.945-0.292,1.415-0.434c1.133-0.341,2.262-0.674,3.386-0.998c0.014-0.004,0.028-0.008,0.041-0.012
					c-0.854-2.175-8.276-17.451-16.537-40.223c-8.876-24.47-3.288-59.033-5.26-60.677c-1.973-1.644-45.885,18.144-45.885,18.144l0,0
					l0,0c0,0,3.764,36.854,6.38,53.592c2.615,16.738,6.277,40.277,9.677,49.169c0.108,0.283,0.229,0.557,0.362,0.825
					c0.632-0.357,1.264-0.716,1.901-1.066c0.463-0.254,0.931-0.501,1.397-0.751C126.26,426.715,126.941,426.349,127.627,425.992z"/>
				<g style="opacity:0.3;">
					<path d="M173.546,408.068c-0.014,0.004-0.028,0.008-0.041,0.012c-1.124,0.324-2.254,0.657-3.386,0.998
						c-0.471,0.141-0.943,0.289-1.415,0.434c-0.716,0.219-1.431,0.438-2.149,0.663c-0.522,0.164-1.045,0.333-1.568,0.5
						c-0.673,0.216-1.346,0.432-2.021,0.654c-0.54,0.177-1.08,0.358-1.621,0.539c-0.664,0.222-1.329,0.448-1.994,0.676
						c-0.545,0.187-1.09,0.376-1.636,0.567c-0.669,0.235-1.339,0.474-2.008,0.714c-0.536,0.193-1.072,0.384-1.608,0.581
						c-0.707,0.259-1.414,0.525-2.12,0.791c-0.497,0.187-0.994,0.371-1.49,0.562c-0.862,0.331-1.724,0.671-2.585,1.012
						c-0.354,0.14-0.709,0.277-1.063,0.419c-1.154,0.464-2.307,0.939-3.457,1.422c-0.458,0.193-0.915,0.392-1.372,0.588
						c-0.736,0.315-1.472,0.63-2.206,0.954c-0.512,0.226-1.021,0.457-1.532,0.686c-0.676,0.304-1.351,0.609-2.024,0.92
						c-0.53,0.245-1.058,0.494-1.587,0.743c-0.656,0.31-1.31,0.623-1.962,0.939c-0.527,0.256-1.052,0.512-1.577,0.773
						c-0.657,0.326-1.311,0.657-1.964,0.99c-0.511,0.261-1.023,0.521-1.532,0.786c-0.686,0.358-1.367,0.723-2.047,1.089
						c-0.466,0.25-0.933,0.497-1.397,0.751c-0.637,0.35-1.268,0.71-1.9,1.067c4.031,8.133,18.996,9.146,27.099,10.159
						c8.369,1.046,40.015-14.384,43.267-19.092c1.743-2.523,3.084-3.097,2.024-7.069c-6.922-1.689-13.273-3.23-21.03-4.856
						C173.611,408.048,173.578,408.058,173.546,408.068z"/>
				</g>
			</g>
			<path style="fill:#F5F5F5;" d="M162.878,316.125c0,0-2.958,0.269-3.764,1.076c-0.807,0.807-1.876,38.716,1.882,44.905
				c0.223,0.368-0.269,0.269,1.882,1.613c2.151,1.344,12.149,5.595,15.217,3.604s10.328-8.444,9.79-11.133
				c-0.538-2.689-3.281-4.746-6.49-10.977c-2.883-5.596-3.996-23.451-3.996-23.451C176.271,321.258,164.551,315.869,162.878,316.125
				z"/>
			<g>
				<path style="opacity:0.3;" d="M187.887,356.295c-0.004-0.034,0.004-0.073-0.002-0.106c-0.538-2.689-3.28-4.746-6.49-10.977
					c-2.883-5.596-3.996-23.451-3.996-23.451c-1.031-0.46-10.922-5.007-13.882-5.583c0.143,0.961,2.321,12.648,4.224,21.211
					c1.707,7.683,5.275,13.064,6.192,14.358c0.197-0.13,0.34-0.201,0.402-0.185C174.989,351.725,184.136,354.13,187.887,356.295z"/>
				<path style="opacity:0.5;" d="M174.348,351.562c-0.063-0.016-0.206,0.055-0.402,0.185c-1.961,1.297-9.96,9.206-12.074,11.309
					c0.248,0.171,0.575,0.385,1.019,0.663c2.151,1.344,12.149,5.595,15.217,3.604c2.633-1.709,8.341-6.699,9.569-9.781
					c0.186-0.465,0.269-0.886,0.223-1.246C184.15,354.13,175.002,351.725,174.348,351.562z"/>
			</g>
			<g>
				<path style="fill:#263238;" d="M192.024,412.833c-0.002,0.018-0.248,0.001-0.717-0.046c-0.469-0.043-1.157-0.146-2.035-0.317
					c-1.761-0.324-4.255-1.035-7.309-1.945c-1.53-0.444-3.208-0.918-5.037-1.279c-1.831-0.372-3.806-0.594-5.862-0.191
					c-4.131,0.694-8.322,2.814-12.956,4.329c-9.191,3.187-17.262,6.74-22.965,9.581c-2.855,1.415-5.132,2.628-6.699,3.478
					c-0.747,0.405-1.347,0.731-1.805,0.979c-0.415,0.22-0.637,0.329-0.646,0.313c-0.009-0.016,0.196-0.154,0.594-0.404
					c0.4-0.247,0.986-0.617,1.758-1.065c1.538-0.906,3.792-2.17,6.633-3.63c5.673-2.931,13.746-6.549,22.959-9.744
					c4.605-1.502,8.805-3.62,13.049-4.311c1.051-0.184,2.104-0.246,3.121-0.183c1.019,0.065,1.976,0.243,2.903,0.424
					c1.849,0.384,3.531,0.882,5.058,1.349c3.046,0.957,5.506,1.716,7.245,2.1c0.867,0.2,1.545,0.335,2.008,0.411
					C191.784,412.764,192.027,412.815,192.024,412.833z"/>
			</g>
			<g>
				<path style="fill:#263238;" d="M174.475,351.702c0.045,0.06-0.673,0.677-1.834,1.666c-1.162,0.989-2.761,2.36-4.483,3.922
					c-1.722,1.564-3.24,3.023-4.337,4.085c-1.096,1.061-1.78,1.716-1.835,1.665c-0.051-0.047,0.538-0.791,1.571-1.922
					c1.033-1.131,2.519-2.641,4.25-4.214c1.732-1.571,3.377-2.905,4.603-3.824C173.636,352.161,174.434,351.647,174.475,351.702z"/>
			</g>
			<g>
				<path style="fill:#263238;" d="M172.258,349.184c-0.027,0.017-0.294-0.335-0.716-1.012c-0.424-0.676-0.979-1.692-1.555-3
					c-1.182-2.611-2.188-6.448-3.065-10.688c-0.917-4.239-1.628-8.107-2.002-10.928c-0.19-1.41-0.309-2.556-0.367-3.349
					c-0.058-0.794-0.065-1.235-0.03-1.238c0.037-0.004,0.112,0.43,0.232,1.215c0.142,0.889,0.319,1.999,0.53,3.317
					c0.466,2.797,1.231,6.64,2.147,10.875c0.877,4.242,1.814,8.041,2.895,10.655C171.377,347.654,172.341,349.135,172.258,349.184z"
					/>
			</g>
			<g>
				<path style="fill:#263238;" d="M186.975,355.858c-0.07,0.139-2.799-1.172-6.33-2.336c-3.527-1.18-6.498-1.762-6.47-1.915
					c0.012-0.067,0.772-0.007,1.982,0.213c1.21,0.22,2.868,0.616,4.652,1.208c1.783,0.593,3.349,1.267,4.45,1.815
					C186.361,355.391,187.006,355.798,186.975,355.858z"/>
			</g>
			<g style="opacity:0.3;">
				<path style="fill:#FFFFFF;" d="M131.217,238.52c-1.164,6.167-0.656,12.641,1.458,18.55c0,0-37.868,12.042-56.033,20.059
					c-2.936-4.857-4.137-10.739-3.339-16.358L131.217,238.52z"/>
			</g>
			<g>
				<path style="fill:#263238;" d="M155.66,200.691c0.003,0.008-0.112,0.064-0.34,0.163c-0.252,0.107-0.587,0.249-1.013,0.429
					c-0.883,0.39-2.162,1.028-3.693,2.035c-3.035,2.008-6.986,5.83-9.802,11.777c-2.87,5.886-4.673,13.666-4.746,22.334
					c-0.126,8.67,1.457,18.213,4.75,27.664c3.335,9.44,8.063,17.882,13.579,24.573c5.474,6.724,11.743,11.671,17.662,14.473
					c5.915,2.884,11.387,3.398,15.011,3.069c1.824-0.171,3.221-0.472,4.154-0.719c0.445-0.125,0.795-0.224,1.059-0.298
					c0.24-0.065,0.364-0.093,0.367-0.085c0.003,0.008-0.116,0.054-0.35,0.135c-0.261,0.087-0.607,0.202-1.048,0.349
					c-0.928,0.281-2.327,0.617-4.164,0.82c-3.648,0.394-9.194-0.069-15.187-2.938c-5.997-2.787-12.343-7.748-17.876-14.501
					c-5.575-6.721-10.346-15.21-13.7-24.706c-3.312-9.506-4.892-19.112-4.739-27.842c0.099-8.728,1.954-16.566,4.895-22.49
					c2.885-5.985,6.926-9.812,10.021-11.784c1.561-0.989,2.864-1.601,3.764-1.962c0.435-0.161,0.778-0.287,1.036-0.383
					C155.536,200.721,155.657,200.682,155.66,200.691z"/>
			</g>
			<g>
				<path style="fill:#263238;" d="M176.855,313.915c-0.004,0.036-0.351,0.032-0.978-0.006c-0.627-0.035-1.531-0.123-2.645-0.263
					c-2.227-0.278-5.29-0.818-8.604-1.7c-3.314-0.886-6.239-1.943-8.309-2.81c-1.036-0.433-1.864-0.807-2.425-1.089
					c-0.563-0.279-0.866-0.448-0.851-0.481c0.033-0.073,1.315,0.453,3.41,1.227c2.095,0.776,5.018,1.77,8.309,2.65
					c3.292,0.875,6.321,1.468,8.524,1.839C175.489,313.653,176.863,313.835,176.855,313.915z"/>
			</g>
			<g>
				<path style="fill:#263238;" d="M149.028,307.022c0.056,0.132-9.581,4.343-21.523,9.404c-11.946,5.062-21.672,9.057-21.728,8.925
					c-0.056-0.132,9.579-4.342,21.525-9.404C139.243,310.885,148.972,306.889,149.028,307.022z"/>
			</g>
			<g>
				<path style="fill:#263238;" d="M247.752,116.251c0.007,0.005-0.052,0.104-0.176,0.291c-0.142,0.208-0.326,0.479-0.559,0.821
					c-0.523,0.741-1.261,1.787-2.203,3.121c-1.928,2.699-4.745,6.586-8.283,11.347c-3.539,4.76-7.796,10.396-12.644,16.562
					c-2.43,3.079-5,6.295-7.732,9.575c-1.359,1.646-2.766,3.302-4.212,4.966c-1.436,1.674-3.005,3.279-4.532,4.954
					c-6.364,6.468-13.011,12.007-19.2,16.827c-6.201,4.812-11.98,8.885-16.892,12.211c-4.914,3.326-8.977,5.885-11.802,7.624
					c-1.412,0.871-2.52,1.528-3.274,1.968c-0.36,0.205-0.645,0.368-0.863,0.492c-0.197,0.107-0.299,0.158-0.304,0.151
					c-0.005-0.008,0.089-0.074,0.277-0.197c0.211-0.136,0.488-0.313,0.836-0.536c0.764-0.486,1.844-1.174,3.221-2.05
					c2.79-1.791,6.82-4.395,11.702-7.756c4.881-3.362,10.63-7.461,16.805-12.285c6.162-4.832,12.784-10.37,19.122-16.812
					c1.52-1.668,3.079-3.262,4.514-4.931c1.445-1.66,2.852-3.311,4.211-4.953c2.734-3.271,5.31-6.478,7.748-9.546
					c4.865-6.145,9.15-11.756,12.726-16.486c3.537-4.728,6.407-8.563,8.413-11.245c0.975-1.309,1.74-2.336,2.282-3.063
					c0.251-0.33,0.449-0.591,0.601-0.791C247.671,116.334,247.745,116.246,247.752,116.251z"/>
			</g>
			<g>
				<path style="fill:#263238;" d="M186.131,301.7c0-0.009,0.104-0.018,0.307-0.026c0.232-0.006,0.529-0.014,0.902-0.024
					c0.829-0.01,1.99-0.024,3.468-0.042c3.049-0.013,7.399-0.032,12.758-0.056c10.805,0.003,25.674,0.008,42.097,0.013
					c16.481-0.007,31.287,2.249,41.871,4.196c5.299,0.986,9.557,1.933,12.491,2.618c1.469,0.336,2.603,0.624,3.372,0.817
					c0.361,0.094,0.649,0.17,0.873,0.229c0.196,0.054,0.295,0.087,0.293,0.095c-0.002,0.009-0.106-0.006-0.305-0.043
					c-0.228-0.046-0.519-0.104-0.885-0.178c-0.811-0.173-1.947-0.414-3.392-0.722c-2.946-0.624-7.212-1.515-12.513-2.454
					c-10.592-1.853-25.368-4.045-41.81-4.038c-16.42-0.065-31.286-0.123-42.089-0.165c-5.36-0.046-9.709-0.084-12.759-0.11
					c-1.479-0.024-2.641-0.043-3.47-0.056c-0.373-0.012-0.671-0.021-0.903-0.028C186.235,301.718,186.131,301.709,186.131,301.7z"/>
			</g>
		</g>
		<path style="opacity:0.3;" d="M376.667,183.779l-130.648-65.472l-7.907,11.1c-3.503,26.929,0.064,60.971,11.56,96.023
			c11.097,33.834,27.589,62.535,45.604,82.137l26.121,6.347L376.667,183.779z"/>
		<g>
			
				<ellipse transform="matrix(0.9502 -0.3116 0.3116 0.9502 -47.1424 109.1749)" style="fill:#FF725E;" cx="318.023" cy="202.09" rx="66.826" ry="135.972"/>
			
				<ellipse transform="matrix(0.9502 -0.3116 0.3116 0.9502 -47.1652 109.8091)" style="fill:#E0E0E0;" cx="319.995" cy="202.478" rx="44.713" ry="111.987"/>
			<g>
				<path style="opacity:0.3;" d="M374.075,186.164c-19.83-60.461-56.878-102.596-82.748-94.111c-3.016,0.989-5.743,2.63-8.183,4.84
					c0.658-0.307,1.331-0.577,2.024-0.804c23.464-7.696,58.111,33.707,77.386,92.475c19.275,58.768,15.879,112.648-7.586,120.344
					c-3.525,1.156-7.303,1.196-11.242,0.244c6.835,3.06,13.423,3.814,19.412,1.849C389.008,302.517,393.905,246.626,374.075,186.164
					z"/>
			</g>
			<path style="fill:#FF725E;" d="M270.568,193.996l61.131-13.239l11.093,33.821l-55.516,29.412
				C287.275,243.991,271.575,209.293,270.568,193.996z"/>
			<path style="opacity:0.2;" d="M287.628,190.302c-0.956,0.392-12.263,20.307-4.484,31.719
				c7.78,11.412,16.218,15.566,16.218,15.566l-11.32,6.12l-11.824-31.333l-5.65-18.378L287.628,190.302z"/>
			<path style="fill:#FF725E;" d="M345.793,194.865c3.063,9.34,1.719,18.166-3.001,19.714c-4.721,1.548-11.031-4.768-14.094-14.107
				c-3.063-9.339-1.719-18.166,3.001-19.714C336.42,179.209,342.73,185.525,345.793,194.865z"/>
			<g>
				<path style="fill:#263238;" d="M345.793,194.865c-0.017,0.006-0.135-0.274-0.344-0.809c-0.195-0.541-0.523-1.323-0.965-2.32
					c-0.459-0.989-1.05-2.186-1.861-3.503c-0.793-1.325-1.836-2.756-3.179-4.15c-1.336-1.364-3.072-2.767-5.262-3.227
					c-1.082-0.22-2.277-0.084-3.282,0.522c-1.007,0.597-1.797,1.592-2.322,2.734c-1.068,2.3-1.35,5.044-1.241,7.816
					c0.136,2.784,0.701,5.643,1.607,8.461c0.939,2.808,2.178,5.447,3.717,7.772c1.554,2.298,3.406,4.344,5.63,5.564
					c1.1,0.609,2.325,0.943,3.491,0.828c1.169-0.107,2.213-0.706,2.954-1.523c1.492-1.669,2.06-3.827,2.328-5.718
					c0.256-1.919,0.249-3.689,0.103-5.227c-0.127-1.541-0.359-2.856-0.575-3.924c-0.234-1.065-0.433-1.889-0.596-2.44
					C345.846,195.165,345.776,194.87,345.793,194.865c0.017-0.006,0.121,0.279,0.303,0.826c0.196,0.543,0.428,1.362,0.694,2.426
					c0.248,1.068,0.512,2.387,0.667,3.941c0.174,1.55,0.209,3.343-0.028,5.303c-0.256,1.932-0.795,4.157-2.377,5.962
					c-0.786,0.885-1.937,1.56-3.224,1.685c-1.284,0.135-2.605-0.227-3.762-0.86c-2.341-1.272-4.236-3.365-5.829-5.704
					c-1.575-2.365-2.835-5.044-3.788-7.893c-0.919-2.86-1.49-5.763-1.621-8.601c-0.102-2.828,0.186-5.635,1.318-8.046
					c0.558-1.195,1.408-2.269,2.522-2.921c1.111-0.662,2.438-0.798,3.595-0.552c2.344,0.518,4.096,1.991,5.446,3.396
					c1.352,1.439,2.385,2.904,3.163,4.256c0.795,1.344,1.364,2.564,1.797,3.571c0.416,1.015,0.714,1.812,0.878,2.366
					C345.725,194.569,345.81,194.859,345.793,194.865z"/>
			</g>
			
				<ellipse transform="matrix(0.9502 -0.3116 0.3116 0.9502 -44.7835 114.9932)" style="opacity:0.3;" cx="337.402" cy="197.617" rx="5.155" ry="10.199"/>
			<g>
				<path style="fill:#263238;" d="M285.094,96.068c0,0-0.204,0.101-0.608,0.272c-0.397,0.187-1.024,0.386-1.782,0.782
					c-1.513,0.786-3.678,2.153-5.886,4.542c-4.48,4.733-8.508,13.641-10.219,25.147c-0.905,5.745-1.377,12.119-1.369,18.962
					c0.023,6.843,0.497,14.153,1.425,21.793c1.844,15.284,5.598,31.868,11.1,48.76c5.572,16.875,12.371,32.465,19.938,45.874
					c3.778,6.706,7.726,12.877,11.76,18.405c4.047,5.518,8.202,10.375,12.334,14.468c8.193,8.257,16.715,13.049,23.127,14.208
					c3.194,0.616,5.747,0.436,7.432,0.173c0.844-0.13,1.468-0.341,1.899-0.426c0.427-0.102,0.651-0.141,0.651-0.141
					s-0.854,0.298-2.531,0.67c-1.688,0.298-4.261,0.513-7.487-0.077c-3.22-0.581-7.022-2.01-11.011-4.388
					c-4.002-2.36-8.181-5.656-12.337-9.757c-4.165-4.092-8.351-8.952-12.424-14.475c-4.061-5.533-8.032-11.711-11.83-18.426
					c-7.607-13.427-14.433-29.042-20.015-45.948c-5.512-16.922-9.259-33.543-11.082-48.864c-0.916-7.659-1.376-14.988-1.38-21.851
					c0.011-6.862,0.505-13.257,1.438-19.021c0.919-5.765,2.334-10.897,4.161-15.168c1.805-4.278,4.022-7.683,6.273-10.058
					c2.25-2.388,4.451-3.738,5.988-4.498C284.229,96.333,285.094,96.068,285.094,96.068z"/>
			</g>
			<path style="opacity:0.2;" d="M282.042,229.19l50.165-21.256c0,0,3.889,6.619,8.86,6.868l-53.025,28.905L282.042,229.19z"/>
			<path style="opacity:0.3;fill:#FFFFFF;" d="M248.759,144.235c0,0-2.653,11.733,0,16.22h9.317v-16.22H248.759z"/>
			<g style="opacity:0.3;">
				<path style="fill:#FFFFFF;" d="M290.569,71.443c-7.576,1.371-14.648,4.801-20.714,10.278
					c-15.392,13.018-21.698,35.774-21.583,55.68c3.065-0.702,7.5-1.655,10.174,0c0.774-10.01,1.696-20.164,5.285-29.541
					s10.233-18.03,19.534-21.811c7.57-3.077,16.202-2.66,24.058-0.414c17.679,5.055,31.307,18.352,43.549,32.405
					C332.239,90.949,310.388,73.625,290.569,71.443z"/>
			</g>
			<g>
				<path style="fill:#FFFFFF;" d="M382.227,297.798c0.016,0.007-0.079,0.246-0.278,0.694c-0.212,0.441-0.468,1.122-0.921,1.936
					c-0.837,1.663-2.234,3.988-4.316,6.597c-2.076,2.608-4.929,5.446-8.617,7.897c-1.857,1.193-3.887,2.349-6.142,3.208
					c-2.247,0.867-4.671,1.523-7.209,1.852c-5.122,0.601-10.043-0.613-14.034-2.461c-4.043-1.809-7.32-4.107-9.969-6.113
					c-2.643-2.027-4.665-3.807-6.04-5.058c-0.692-0.62-1.211-1.123-1.566-1.46c-0.353-0.339-0.532-0.524-0.52-0.537
					c0.012-0.013,0.215,0.145,0.59,0.459c0.411,0.349,0.953,0.81,1.629,1.386c1.414,1.203,3.469,2.936,6.127,4.916
					c2.664,1.959,5.941,4.208,9.943,5.968c3.954,1.802,8.775,2.967,13.775,2.382c2.491-0.323,4.874-0.964,7.087-1.81
					c2.221-0.839,4.226-1.969,6.065-3.134c3.653-2.396,6.502-5.174,8.596-7.729c2.1-2.555,3.535-4.835,4.423-6.46
					c0.478-0.795,0.763-1.459,1.004-1.884C382.083,298.014,382.211,297.79,382.227,297.798z"/>
			</g>
			<g style="opacity:0.3;">
				<path d="M304.407,260.567c-15.446-32.702-25.625-67.885-30.029-103.782c-1.462-11.92-2.288-24.033-0.521-35.911
					c1.229-8.263,3.799-16.446,7.988-23.635c-20.943,10.918-23.321,62.792-4.829,119.173
					c19.275,58.768,53.922,100.171,77.386,92.475c0.816-0.268,1.606-0.597,2.374-0.975c-11.895-0.572-23.152-6.81-31.614-15.283
					C316.12,283.576,309.872,272.137,304.407,260.567z"/>
			</g>
		</g>
	</g>
</g>
<g id="Bolts">
	<polygon style="fill:#FF725E;" points="385.669,185.462 447.115,174.396 437.664,160.935 471.339,146.738 417.657,153.222 
		427.389,167.977 	"/>
	<polygon style="fill:#FF725E;" points="379.999,145.864 419.007,114.667 403.846,108.127 417.402,83.469 385.669,110.137 
		398.819,116.352 	"/>
	<polygon style="fill:#FF725E;" points="400.407,218.646 439.568,249.781 440.594,238.084 466.624,248.771 432.91,221.617 
		431.855,234.017 	"/>
</g>
</svg>
